<svg preserveAspectRatio="none" width="100%" height="100%" overflow="visible" style="display: block;" viewBox="0 0 497 66.3357" fill="none" xmlns="http://www.w3.org/2000/svg">
<path id="Vector 4" d="M458.337 1.51408L442.249 8.15729C437.323 10.1916 431.789 10.1753 426.874 8.11219L411.329 1.58584C406.377 -0.493047 400.797 -0.493046 395.845 1.58584L380.363 8.08552C375.411 10.1644 369.831 10.1644 364.879 8.08552L349.334 1.55917C344.419 -0.503975 338.885 -0.520209 333.958 1.51407L317.87 8.15729C312.944 10.1916 307.409 10.1753 302.495 8.1122L286.949 1.58584C281.998 -0.493047 276.418 -0.493046 271.466 1.58584L256.049 8.05801C251.059 10.1531 245.432 10.1361 240.455 8.01096L225.516 1.63328C220.576 -0.475914 214.995 -0.50912 210.03 1.54113L194.008 8.15729C189.081 10.1916 183.547 10.1753 178.632 8.11219L163.087 1.58584C158.135 -0.493047 152.555 -0.493045 147.603 1.58584L132.121 8.08552C127.169 10.1644 121.589 10.1644 116.637 8.08552L101.092 1.55917C96.1772 -0.503974 90.6426 -0.520203 85.7162 1.51408L69.6285 8.15729C64.7021 10.1916 59.1675 10.1753 54.2532 8.1122L38.7075 1.58584C33.7557 -0.493046 28.1758 -0.493046 23.2239 1.58584L12.2582 6.18946C4.83161 9.30728 0 16.5758 0 24.6303V46.3357C0 57.3814 8.95429 66.3357 20 66.3357H477C488.046 66.3357 497 57.3814 497 46.3357V24.6303C497 16.5758 492.168 9.30728 484.742 6.18947L473.713 1.55917C468.798 -0.503976 463.264 -0.520206 458.337 1.51408Z" fill="var(--fill-0, #25232E)"/>
</svg>
