<svg preserveAspectRatio="none" width="100%" height="100%" overflow="visible" style="display: block;" viewBox="0 0 21 21" fill="none" xmlns="http://www.w3.org/2000/svg">
<path id="vector" fill-rule="evenodd" clip-rule="evenodd" d="M10.8723 0.0927522C11.0311 0.176456 11.1601 0.311472 11.24 0.47784L14.0709 6.37022L20.2969 7.36887C20.7491 7.44142 21.0596 7.88418 20.9903 8.3578C20.9634 8.54189 20.8806 8.71203 20.7542 8.84304L16.2778 13.4834L17.5995 19.9507C17.6953 20.4192 17.4102 20.8803 16.9628 20.9806C16.7815 21.0212 16.5924 20.997 16.4257 20.9117L10.4999 17.8796L4.57415 20.9117C4.16306 21.1221 3.66697 20.9436 3.46611 20.5131C3.3847 20.3386 3.36154 20.1406 3.40035 19.9507L4.72206 13.4834L0.245639 8.84304C-0.0795339 8.50596 -0.0822066 7.95665 0.239669 7.61611C0.364776 7.48376 0.527233 7.39707 0.70302 7.36887L6.92901 6.37022L9.75988 0.47784C9.96552 0.0498095 10.4636 -0.1226 10.8723 0.0927522ZM13.0586 7.72702L10.4992 2.40075L7.94129 7.72702L2.14875 8.65575L6.34977 13.0102L5.13825 18.9375L10.4999 16.1946L15.861 18.9375L14.6501 13.0102L18.8505 8.65575L13.0586 7.72702Z" fill="var(--fill-0, #A063A2)"/>
</svg>
