<svg preserveAspectRatio="none" width="100%" height="100%" overflow="visible" style="display: block;" viewBox="0 0 25.601 25.601" fill="none" xmlns="http://www.w3.org/2000/svg">
<g id="&#240;&#159;&#142;&#168; Color">
<path id="Vector" fill-rule="evenodd" clip-rule="evenodd" d="M5.0107 16.4656H20.9889V15.0853H5.0107V16.4656ZM18.6087 21.365H7.39123L6.55636 17.5401H19.444L18.6087 21.365ZM15.5896 4.84879C16.4245 4.53803 17.3241 4.56754 18.1383 4.93555C17.3639 6.5989 15.388 7.32782 13.7161 6.5797C14.0912 5.77221 14.7561 5.15956 15.5896 4.84879ZM9.6587 10.9496C8.80106 10.7203 8.08246 10.1717 7.63266 9.40434C8.40532 8.96699 9.30455 8.85215 10.1622 9.07971C11.0198 9.30905 11.7388 9.85769 12.1882 10.625C11.4173 11.0659 10.5217 11.1822 9.6587 10.9496ZM21.5219 14.0193H13.534V7.63326C14.0439 7.82633 14.5666 7.94082 15.0879 7.94082C16.7651 7.94082 18.3726 6.98256 19.1158 5.36081L19.3291 4.89395C19.4525 4.62479 19.3344 4.30869 19.0671 4.18708L18.6002 3.97374C17.5289 3.48057 16.3256 3.43719 15.218 3.84858C14.1104 4.25997 13.23 5.07778 12.7386 6.15267L12.5253 6.61953C12.4759 6.72691 12.4904 6.83927 12.5128 6.94665C12.5036 6.98612 12.468 7.01279 12.468 7.05546V9.36132C11.9094 8.76005 11.2506 8.26581 10.4385 8.04856C9.2889 7.73957 8.1013 7.901 7.08224 8.49124L6.63778 8.74654C6.5144 8.81588 6.42586 8.93215 6.38782 9.0694C6.35119 9.20629 6.37039 9.35243 6.44151 9.47546L6.69858 9.91814C7.28883 10.9425 8.24211 11.6754 9.38277 11.9808C9.76466 12.0832 10.1519 12.1337 10.5355 12.1337C11.2058 12.1337 11.8582 11.9524 12.468 11.6508V14.0193H4.47806C4.18293 14.0193 3.94506 14.2571 3.94506 14.5523V16.9986C3.94506 17.2937 4.18293 17.5316 4.47806 17.5316H5.46334L6.44151 22.0125C6.49556 22.2574 6.71245 22.431 6.96242 22.431H19.0375C19.2875 22.431 19.5048 22.2574 19.5584 22.0125L20.5366 17.5316H21.5219C21.817 17.5316 22.0549 17.2937 22.0549 16.9986V14.5523C22.0549 14.2571 21.817 14.0193 21.5219 14.0193Z" fill="var(--fill-0, #A063A2)"/>
</g>
</svg>
