<svg preserveAspectRatio="none" width="100%" height="100%" overflow="visible" style="display: block;" viewBox="0 0 27.5841 27.5841" fill="none" xmlns="http://www.w3.org/2000/svg">
<g id="&#240;&#159;&#142;&#168; Color">
<path id="Vector" fill-rule="evenodd" clip-rule="evenodd" d="M6.1941 8.20182C6.34504 8.14167 6.50097 8.14014 6.6546 8.22021C6.66532 8.22481 6.67707 8.22447 6.68814 8.22623L6.72126 8.23515C6.7454 8.25201 6.74501 8.28496 6.7657 8.30526C6.84123 8.36437 6.91732 8.42545 6.96068 8.51407L6.97948 8.5608L7.90355 11.5479C7.99703 11.851 7.82501 12.1728 7.52197 12.2663C7.46565 12.285 7.40971 12.2927 7.3534 12.2927C7.12429 12.2927 6.91435 12.1573 6.82265 11.9401L6.80363 11.8885L6.25271 10.1017C4.58272 13.4064 5.16467 17.459 7.85489 20.1477C10.9041 23.2022 15.8014 23.5428 19.236 20.9407C19.4942 20.7499 19.8498 20.7986 20.0406 21.053C20.2348 21.3054 20.1827 21.6648 19.9318 21.8575C18.1809 23.1835 16.0934 23.8347 14.013 23.8347C11.4726 23.8347 8.9437 22.862 7.03924 20.9595C4.07509 17.9972 3.36395 13.566 5.07462 9.8796L5.14628 9.72852L3.60847 10.2032C3.30542 10.3059 2.98744 10.13 2.89013 9.82507C2.80215 9.53985 2.94935 9.23801 3.21962 9.12555L3.27171 9.10673L6.1941 8.20182ZM12.7524 7.94885C12.9393 7.5393 13.3734 7.3148 13.8262 7.41594C14.2455 7.50802 14.5466 7.85873 14.5756 8.28182L14.5779 8.3492V12.0233H17.2754C17.6459 12.0233 17.9903 12.2102 18.1884 12.5248C18.3736 12.8162 18.4086 13.173 18.2848 13.4931L18.2558 13.5611L15.2476 20.0522C15.0871 20.3981 14.7503 20.6077 14.3871 20.6077C14.3162 20.6077 14.245 20.6004 14.1779 20.5835C13.7583 20.4911 13.4572 20.1404 13.4282 19.7173L13.4259 19.6499V15.9777H10.7246C10.3541 15.9777 10.0135 15.7927 9.81543 15.4801C9.6276 15.1902 9.59172 14.8355 9.71025 14.5167L9.74034 14.4438L12.7524 7.94885ZM8.06828 6.14374C11.9553 3.19568 17.5001 3.58109 20.9608 7.03984C23.9204 10.0013 24.6356 14.4325 22.9295 18.119L22.858 18.27L24.3916 17.7961C24.6985 17.7007 25.0126 17.8708 25.1099 18.1739C25.1979 18.4591 25.0507 18.7609 24.7804 18.8734L24.7283 18.8922L21.7427 19.8163L21.6998 19.8232C21.6665 19.8293 21.645 19.8688 21.6117 19.8688C21.5278 19.8688 21.4458 19.8304 21.3654 19.7918C21.3458 19.7841 21.324 19.7864 21.3048 19.7772L21.3006 19.7714L21.2826 19.7661C21.2585 19.7488 21.2585 19.7163 21.2382 19.6964C21.1617 19.6349 21.0843 19.571 21.0423 19.484L21.0244 19.4385L20.1003 16.451C20.0069 16.148 20.1789 15.8262 20.4819 15.7327C20.7707 15.636 21.066 15.7878 21.1809 16.0587L21.2002 16.1108L21.7515 17.8984C23.4204 14.5937 22.8354 10.54 20.1452 7.85165C17.096 4.80054 12.1986 4.45996 8.76402 7.06053C8.50963 7.25285 8.15027 7.20458 7.95948 6.94827C7.76524 6.69542 7.81735 6.33453 8.06828 6.14374ZM13.4259 9.2227L10.7843 14.9246L14.0021 14.8292C14.3014 14.8292 14.5474 15.0562 14.5753 15.348L14.5779 15.4035V18.7706L17.1708 13.1718H14.0021C13.7025 13.1718 13.4564 12.9448 13.4285 12.653L13.4259 12.5975V9.2227Z" fill="var(--fill-0, #A063A2)"/>
</g>
</svg>
