<svg preserveAspectRatio="none" width="100%" height="100%" overflow="visible" style="display: block;" viewBox="0 0 23.4375 23.4375" fill="none" xmlns="http://www.w3.org/2000/svg">
<g id="&#240;&#159;&#142;&#168; Color">
<path id="Vector" fill-rule="evenodd" clip-rule="evenodd" d="M17.9511 21.4064H6.2369C5.68514 21.4064 5.23527 20.9581 5.23527 20.3826L5.18937 19.4275H18.9032L18.9508 20.4067C18.9508 20.9581 18.5025 21.4064 17.9511 21.4064ZM6.6438 15.0135C6.6438 11.8663 7.69491 9.77357 10.2336 7.69219L11.1965 9.65052C9.49015 11.0483 8.62427 12.7967 8.62427 15.0135C8.62427 16.2055 8.9283 17.3647 9.39933 18.4516H7.20597C6.84823 17.3403 6.6438 16.1886 6.6438 15.0135ZM10.2135 3.48516C10.1086 3.27227 10.1978 3.01315 10.4091 2.90834C10.4345 2.89564 10.4934 2.88457 10.565 2.88457C10.7063 2.88457 10.9003 2.93047 10.9862 3.10528L11.0963 3.32761L10.3261 3.71498L10.2135 3.48516ZM17.0911 13.7117L14.8388 14.8452L9.98788 4.97767L10.2939 4.82403C10.3033 4.82012 10.3137 4.82175 10.3232 4.81719L11.9732 4.00664C11.9934 3.99688 11.9976 3.97051 12.0162 3.95782L12.2385 3.84616L17.0911 13.7117ZM19.8554 18.9158C19.8427 18.6551 19.6278 18.4516 19.3674 18.4516H10.4417C9.90812 17.3869 9.60018 16.2111 9.60018 15.0135C9.60018 13.1622 10.2795 11.742 11.6418 10.5571L14.1793 15.7192C14.2366 15.8354 14.3398 15.9243 14.4622 15.9656C14.5129 15.9832 14.5657 15.991 14.6181 15.991C14.6926 15.991 14.7691 15.9738 14.8375 15.9386L17.9622 14.3667C18.2021 14.2475 18.2991 13.9565 18.1816 13.715L12.8984 2.97181C12.8394 2.85593 12.7375 2.76673 12.6152 2.72539C12.4944 2.68405 12.3577 2.69382 12.2402 2.75241L11.969 2.8888L11.8635 2.67461C11.4804 1.89434 10.5077 1.77325 9.97844 2.03106C9.2854 2.37416 8.99601 3.21823 9.33618 3.91615L9.4537 4.15378L9.11678 4.32305C8.87687 4.44219 8.77987 4.73288 8.89771 4.97442L9.78768 6.78529C6.88827 9.09746 5.66789 11.5001 5.66789 15.0135C5.66789 16.186 5.87101 17.3341 6.19849 18.4516H4.67603C4.54256 18.4516 4.41528 18.5057 4.32316 18.6027C4.23104 18.6997 4.18156 18.8299 4.18807 18.9634L4.25936 20.4067C4.25936 21.4969 5.1464 22.3823 6.2369 22.3823H17.9511C19.0416 22.3823 19.9267 21.4969 19.9267 20.3826L19.8554 18.9158Z" fill="var(--fill-0, #A063A2)"/>
</g>
</svg>
