<svg width="60" height="60" viewBox="0 0 60 60" fill="none" xmlns="http://www.w3.org/2000/svg">
<rect width="60" height="60" fill="#1E1E1E"/>
<g id="Desktop Homepage">
<rect width="2434" height="9960" transform="translate(-1094 -5458)" fill="#424242"/>
<g id="MacBook Pro 16&#34; - 1">
<rect width="1728" height="7896" transform="translate(-703 -5242)" fill="#312F3C"/>
<g id="Frame 1877942892">
<g id="Frame 1877942896">
<g id="Frame 1877942895">
<g id="Frame 1877942894">
<g id="Frame 1877942891">
<g id="Frame 1877942890">
<rect x="-40" y="-60" width="399" height="280" rx="8" fill="#413D57"/>
<g id="Frame 1877942888">
<g id="[LD 3.5] ArtAndCrafts" clip-path="url(#clip0_15_1197)">
<g id="&#240;&#159;&#142;&#168; Color">
<path id="Vector" fill-rule="evenodd" clip-rule="evenodd" d="M26.693 10.5289C34.5208 8.52957 42.9444 10.9681 48.8053 16.5585C49.83 14.9797 49.7531 13.388 49.4659 12.0122C49.3483 11.4739 49.5651 10.9171 50.0172 10.5966C50.4517 10.2704 51.0669 10.2436 51.5375 10.5373C53.5276 11.7315 56.2061 15.8395 56.812 19.5492C57.1835 21.7931 56.749 23.7016 55.5816 25.0775C55.539 25.1275 55.4742 25.1479 55.4288 25.1979C55.9587 25.806 56.2824 26.5519 56.3134 27.3542L56.3145 27.5743L55.4371 53.69C55.3556 55.581 53.8269 57.0513 51.9535 57.0513C50.1236 57.0513 48.6329 55.6708 48.4815 53.8713L48.4709 53.69L47.8937 36.5214C43.8718 38.6115 41.4973 43.1485 42.5349 47.579C43.0686 49.696 42.7341 51.8176 41.6575 53.5047C40.6347 55.1242 39.0245 56.2193 37.1335 56.5946C36.3377 56.7484 35.5326 56.866 34.7089 56.9429C33.9853 57.0105 33.2525 57.043 32.5372 57.043C22.8657 57.043 13.99 51.0625 10.4879 41.9237C8.06328 35.6088 8.45241 28.5601 11.5376 22.5797C14.632 16.5992 20.1511 12.2068 26.693 10.5289ZM47.4277 18.9988C42.2523 13.7049 34.5375 11.372 27.3804 13.225C21.6075 14.7037 16.7315 18.581 14.0076 23.8554C11.2847 29.1308 10.9409 35.3549 13.0756 40.9287C16.4053 49.5959 25.3088 55.0473 34.456 54.1746C35.1888 54.1069 35.9032 54.0069 36.5999 53.867C37.7311 53.6456 38.6993 52.985 39.3145 52.0122C39.9416 51.0281 40.164 49.794 39.9283 48.5962L39.875 48.3572C38.3921 42.0963 41.7696 35.9018 47.5146 33.557L47.7899 33.4482L47.6222 28.4295C46.8292 29.6858 45.684 30.6568 44.2545 31.0987C43.6476 31.284 43.0417 31.3701 42.4358 31.3701C39.7758 31.3701 37.3058 29.6552 36.4822 26.9907C35.4872 23.7109 37.3235 20.2273 40.5986 19.2184C42.1912 18.7394 43.8829 18.9025 45.3403 19.6715C45.9916 20.0198 46.5364 20.5034 47.0172 21.038C47.0617 20.3506 47.1784 19.664 47.4277 18.9988ZM52.8318 26.7646H51.0762C50.8514 26.7646 50.6927 26.864 50.6064 26.9437L50.5694 26.9814C50.4995 27.0473 50.3969 27.1833 50.3743 27.3772L50.3702 27.4789L51.2568 53.6002C51.2745 54.3165 52.5036 54.3491 52.6467 53.6898L52.6595 53.5909L53.5276 27.4882C53.5369 27.2306 53.4109 27.0583 53.3377 26.9768C53.2686 26.9077 53.1389 26.8011 52.9382 26.7721L52.8318 26.7646ZM25.2635 39.0877C26.8552 38.6031 28.5294 38.7615 30.0043 39.5398C31.47 40.318 32.5373 41.616 33.0256 43.1994C34.0299 46.4708 32.1936 49.9534 28.9185 50.9624C28.3126 51.1523 27.7057 51.2385 27.0998 51.2385C24.4399 51.2385 21.9699 49.5198 21.1462 46.8553C20.1419 43.5755 21.9875 40.0966 25.2635 39.0877ZM27.0905 41.5938C26.7561 41.5938 26.4124 41.6438 26.077 41.7476C24.2676 42.3044 23.2549 44.2268 23.8062 46.0363C24.3583 47.8457 26.2947 48.8639 28.1041 48.3071C29.8552 47.7682 30.8609 45.9461 30.4151 44.1934L30.3657 44.0184C30.1035 43.141 29.5068 42.4211 28.7017 41.9959C28.1949 41.7291 27.652 41.5938 27.0905 41.5938ZM17.9343 26.6786C19.5269 26.195 21.2094 26.3525 22.6668 27.1261C24.1325 27.9044 25.209 29.2033 25.6973 30.7903C26.1865 32.3737 26.0234 34.0571 25.2544 35.5182C24.4762 36.9885 23.1736 38.0651 21.5902 38.5533C20.9834 38.7396 20.3682 38.8294 19.7623 38.8294C17.1116 38.8294 14.6416 37.1108 13.8179 34.4462C12.8229 31.1665 14.6685 27.6876 17.9343 26.6786ZM19.7715 29.1801C19.4278 29.1801 19.0841 29.2348 18.7487 29.3339C16.9393 29.8954 15.9257 31.8178 16.4779 33.6272C17.0384 35.4367 18.984 36.4456 20.7758 35.8934C21.6532 35.6266 22.3675 35.0299 22.7928 34.2202C23.1939 33.4727 23.2942 32.625 23.0937 31.8119L23.0374 31.6094C22.7752 30.7273 22.1776 30.013 21.3632 29.5831C20.8657 29.3163 20.3228 29.1801 19.7715 29.1801ZM42.4265 21.7245C42.0921 21.7245 41.7483 21.7746 41.4129 21.8783C39.6035 22.4351 38.59 24.3622 39.1421 26.1717C39.6943 27.9635 41.576 29.0085 43.4401 28.4388C44.3175 28.171 45.0327 27.5743 45.458 26.7646C45.8583 26.0171 45.9585 25.1655 45.758 24.3524L45.7016 24.1501C45.4394 23.2718 44.8419 22.5574 44.0367 22.1276C43.53 21.8607 42.9787 21.7245 42.4265 21.7245ZM26.8376 14.9433C30.1396 13.9437 33.5963 15.7901 34.6006 19.0514C35.0889 20.6393 34.9351 22.3218 34.1568 23.7875C33.3786 25.2532 32.0759 26.3307 30.4833 26.8236C29.8774 27.0089 29.2715 27.0951 28.6656 27.0951C26.014 27.0951 23.544 25.3755 22.7203 22.711C21.7169 19.4312 23.5625 15.9476 26.8376 14.9433ZM28.6563 17.4504C28.3302 17.4504 27.9865 17.4995 27.652 17.6042C25.8426 18.1554 24.829 20.0825 25.3812 21.892C25.9417 23.7023 27.8873 24.7196 29.6689 24.1637C30.5473 23.8922 31.2708 23.2993 31.6961 22.4895C32.1306 21.6798 32.2121 20.7477 31.9407 19.875C31.4876 18.4 30.122 17.4504 28.6563 17.4504ZM52.2704 15.4689C52.0617 16.4541 51.6446 17.5128 50.8632 18.5486L50.6602 18.807C49.3844 20.3765 49.5836 22.5843 50.334 23.3079C50.8232 23.7693 51.3291 24.0231 52.0805 23.9824C52.4511 23.9638 53.0032 23.8239 53.4646 23.2764C54.0983 22.5306 54.3059 21.4262 54.0705 19.9966C53.8084 18.3911 53.0755 16.7669 52.2704 15.4689Z" fill="#FED59D"/>
</g>
</g>
</g>
</g>
</g>
</g>
</g>
</g>
</g>
</g>
</g>
<defs>
<clipPath id="clip0_15_1197">
<rect width="60" height="60" fill="white"/>
</clipPath>
</defs>
</svg>
