<svg width="60" height="60" viewBox="0 0 60 60" fill="none" xmlns="http://www.w3.org/2000/svg">
<rect width="60" height="60" fill="#1E1E1E"/>
<g id="Desktop Homepage">
<rect width="2434" height="9960" transform="translate(-1094 -5138)" fill="#424242"/>
<g id="MacBook Pro 16&#34; - 1">
<rect width="1728" height="7896" transform="translate(-703 -4922)" fill="#312F3C"/>
<g id="Frame 1877942892">
<g id="Frame 1877942896">
<g id="Frame 1877942895">
<g id="Frame 1877942894">
<g id="Frame 1877942890">
<g id="Frame 1877942890_2">
<rect x="-40" y="-60" width="399" height="280" rx="8" fill="#413D57"/>
<g id="Frame 1877942888">
<g id="[LD 3.5] Star">
<path id="vector" fill-rule="evenodd" clip-rule="evenodd" d="M30.9307 3.98188C31.3279 4.19114 31.6502 4.52868 31.85 4.9446L38.9272 19.6755L54.4922 22.1722C55.6228 22.3535 56.399 23.4604 56.2258 24.6445C56.1585 25.1047 55.9516 25.5301 55.6356 25.8576L44.4446 37.4585L47.7488 53.6266C47.9882 54.798 47.2755 55.9508 46.157 56.2015C45.7037 56.3031 45.2309 56.2425 44.8143 56.0293L29.9999 48.4489L15.1854 56.0293C14.1576 56.5552 12.9174 56.109 12.4153 55.0327C12.2117 54.5965 12.1539 54.1014 12.2509 53.6266L15.5551 37.4585L4.3641 25.8576C3.55117 25.0149 3.54448 23.6416 4.34917 22.7903C4.66194 22.4594 5.06808 22.2427 5.50755 22.1722L21.0725 19.6755L28.1497 4.9446C28.6638 3.87452 29.9089 3.4435 30.9307 3.98188ZM36.3965 23.0676L29.9981 9.75187L23.6032 23.0676L9.12187 25.3894L19.6244 36.2755L16.5956 51.0938L29.9999 44.2365L43.4025 51.0938L40.3753 36.2755L50.8762 25.3894L36.3965 23.0676Z" fill="#FED59D"/>
</g>
</g>
</g>
</g>
</g>
</g>
</g>
</g>
</g>
</g>
</svg>
