<svg width="60" height="60" viewBox="0 0 60 60" fill="none" xmlns="http://www.w3.org/2000/svg">
<rect width="60" height="60" fill="#1E1E1E"/>
<g id="Desktop Homepage">
<rect width="2434" height="9960" transform="translate(-655 -5138)" fill="#424242"/>
<g id="MacBook Pro 16&#34; - 1">
<rect width="1728" height="7896" transform="translate(-264 -4922)" fill="#312F3C"/>
<g id="Frame 1877942892">
<g id="Frame 1877942896">
<g id="Frame 1877942895">
<g id="Frame 1877942894">
<g id="Frame 1877942890">
<g id="Frame 1877942889">
<rect x="-40" y="-60" width="399" height="280" rx="8" fill="#413D57"/>
<g id="Frame 1877942888">
<path id="Vector" fill-rule="evenodd" clip-rule="evenodd" d="M3.53059 41.0241H56.4682V36.6333H3.53059V41.0241ZM48.5824 56.6091H11.4176L8.65154 44.4422H51.3496L48.5824 56.6091ZM38.5797 4.07102C41.3457 3.08247 44.3262 3.17635 47.0239 4.347C44.4581 9.63813 37.9117 11.9568 32.3726 9.57705C33.6154 7.0084 35.8183 5.05958 38.5797 4.07102ZM18.9299 23.4779C16.0885 22.7483 13.7077 21.0031 12.2175 18.5622C14.7774 17.171 17.7566 16.8057 20.5981 17.5296C23.4395 18.2591 25.8215 20.0044 27.3105 22.4452C24.7565 23.8477 21.7891 24.2176 18.9299 23.4779ZM58.2341 33.2424H31.7694V12.9284C33.4587 13.5426 35.1905 13.9068 36.9175 13.9068C42.4743 13.9068 47.8002 10.8586 50.2623 5.69976L50.9691 4.21467C51.3779 3.35845 50.9868 2.35293 50.1009 1.96611L48.5541 1.28747C45.0047 -0.281321 41.0182 -0.419311 37.3486 0.889333C33.679 2.19798 30.7622 4.79943 29.1341 8.21864L28.4273 9.70373C28.2636 10.0453 28.3119 10.4027 28.3861 10.7443C28.3555 10.8699 28.2377 10.9547 28.2377 11.0904V18.4254C26.3869 16.5128 24.204 14.9406 21.5134 14.2495C17.7048 13.2666 13.7701 13.7801 10.3939 15.6577L8.92131 16.4698C8.51253 16.6903 8.2192 17.0602 8.09315 17.4968C7.97181 17.9322 8.03542 18.3971 8.27103 18.7885L9.12275 20.1966C11.0783 23.4552 14.2366 25.7864 18.0158 26.758C19.281 27.0837 20.5639 27.2443 21.835 27.2443C24.0556 27.2443 26.2173 26.6675 28.2377 25.7083V33.2424H1.76588C0.788109 33.2424 0 33.999 0 34.9378V42.7196C0 43.6583 0.788109 44.415 1.76588 44.415H5.03024L8.27103 58.6687C8.45009 59.448 9.1687 60 9.99686 60H50.0031C50.8313 60 51.5511 59.448 51.729 58.6687L54.9698 44.415H58.2341C59.2119 44.415 60 43.6583 60 42.7196V34.9378C60 33.999 59.2119 33.2424 58.2341 33.2424Z" fill="#9A8582"/>
</g>
</g>
</g>
</g>
</g>
</g>
</g>
</g>
</g>
</svg>
