<svg width="60" height="60" viewBox="0 0 60 60" fill="none" xmlns="http://www.w3.org/2000/svg">
<rect width="60" height="60" fill="#1E1E1E"/>
<g id="Desktop Homepage">
<rect width="2434" height="9960" transform="translate(-1533 -5138)" fill="#424242"/>
<g id="MacBook Pro 16&#34; - 1">
<rect width="1728" height="7896" transform="translate(-1142 -4922)" fill="#312F3C"/>
<g id="Frame 1877942892">
<g id="Frame 1877942896">
<g id="Frame 1877942895">
<g id="Frame 1877942894">
<g id="Frame 1877942890">
<g id="Frame 1877942891">
<rect x="-40" y="-60" width="399" height="280" rx="8" fill="#413D57"/>
<g id="Frame 1877942888">
<g id="&#240;&#159;&#142;&#168; Color">
<path id="Vector" fill-rule="evenodd" clip-rule="evenodd" d="M8.9699 14.6715C9.37657 14.5124 9.79666 14.5084 10.2106 14.7201C10.2395 14.7322 10.2711 14.7313 10.3009 14.736L10.3901 14.7596C10.4552 14.8041 10.4541 14.8912 10.5099 14.9449C10.7134 15.1012 10.9184 15.2627 11.0352 15.4969L11.0858 15.6205L13.5754 23.5175C13.8272 24.3187 13.3638 25.1694 12.5473 25.4166C12.3956 25.4662 12.2449 25.4865 12.0932 25.4865C11.476 25.4865 10.9104 25.1284 10.6633 24.5542L10.6121 24.4179L9.12782 19.6941C4.62867 28.4308 6.19651 39.1445 13.4443 46.2525C21.6592 54.3278 34.8532 55.2282 44.1064 48.3491C44.8021 47.8447 45.7599 47.9733 46.2739 48.6458C46.7972 49.3133 46.6569 50.2633 45.9808 50.7728C41.2639 54.2782 35.6397 56 30.0351 56C23.1909 56 16.3777 53.4284 11.2468 48.3987C3.26106 40.5674 1.34514 28.8527 5.95389 19.107L6.14697 18.7076L2.00391 19.9625C1.18748 20.2339 0.330793 19.769 0.0686265 18.9628C-0.168404 18.2088 0.228171 17.4108 0.956312 17.1135L1.09665 17.0638L8.9699 14.6715ZM26.6387 14.0027C27.1424 12.92 28.3118 12.3264 29.5318 12.5938C30.6614 12.8373 31.4724 13.7644 31.5507 14.883L31.5569 15.0611V24.7741H38.8243C39.8224 24.7741 40.7503 25.2684 41.2839 26.0999C41.7829 26.8704 41.8773 27.8137 41.5436 28.6599L41.4656 28.8396L33.3611 46C32.9286 46.9146 32.0214 47.4686 31.0429 47.4686C30.8519 47.4686 30.66 47.4494 30.4793 47.4048C29.3488 47.1604 28.5377 46.2332 28.4594 45.1147L28.4532 44.9365V35.2286H21.1755C20.1774 35.2286 19.2598 34.7394 18.7262 33.9129C18.2202 33.1464 18.1235 32.2087 18.4428 31.3659L18.5239 31.1732L26.6387 14.0027ZM14.0192 9.23053C24.4914 1.4368 39.4297 2.4557 48.7532 11.5995C56.7267 19.4288 58.6535 31.1435 54.057 40.8893L53.8644 41.2886L57.9961 40.0358C58.8228 39.7836 59.6692 40.2333 59.9314 41.0344C60.1684 41.7884 59.7718 42.5864 59.0437 42.8837L58.9034 42.9335L50.8598 45.3764L50.7442 45.3947C50.6544 45.4109 50.5966 45.5152 50.5068 45.5152C50.2808 45.5152 50.0599 45.4139 49.8431 45.3116C49.7905 45.2913 49.7317 45.2974 49.68 45.2731L49.6687 45.2579L49.6202 45.2437C49.5552 45.1982 49.5552 45.1121 49.5005 45.0594C49.2943 44.8971 49.0859 44.728 48.9727 44.4981L48.9245 44.3778L46.435 36.4797C46.1831 35.6786 46.6465 34.8278 47.463 34.5807C48.2411 34.3252 49.0366 34.7265 49.3461 35.4425L49.3983 35.5803L50.8835 40.3062C55.3796 31.5695 53.8035 20.8528 46.5557 13.7457C38.3408 5.67954 25.1468 4.77914 15.8936 11.6542C15.2082 12.1627 14.2401 12.0351 13.7261 11.3575C13.2028 10.689 13.3431 9.73492 14.0192 9.23053ZM28.4532 17.3703L21.3365 32.4443L30.0056 32.1921C30.8119 32.1921 31.4746 32.7923 31.5498 33.5638L31.5569 33.7103V42.6121L38.5425 27.8106H30.0056C29.1983 27.8106 28.5355 27.2104 28.4603 26.4389L28.4532 26.2924V17.3703Z" fill="#FED59D"/>
</g>
</g>
</g>
</g>
</g>
</g>
</g>
</g>
</g>
</g>
</svg>
