<svg width="60" height="60" viewBox="0 0 60 60" fill="none" xmlns="http://www.w3.org/2000/svg">
<rect width="60" height="60" fill="#1E1E1E"/>
<g id="Desktop Homepage">
<rect width="2434" height="9960" transform="translate(-655 -5458)" fill="#424242"/>
<g id="MacBook Pro 16&#34; - 1">
<rect width="1728" height="7896" transform="translate(-264 -5242)" fill="#312F3C"/>
<g id="Frame 1877942892">
<g id="Frame 1877942896">
<g id="Frame 1877942895">
<g id="Frame 1877942894">
<g id="Frame 1877942891">
<g id="Frame 1877942889">
<rect x="-40" y="-60" width="399" height="280" rx="8" fill="#413D57"/>
<g id="Frame 1877942888">
<g id="[LD 3.5] Labs">
<g id="&#240;&#159;&#142;&#168; Color">
<path id="Vector" fill-rule="evenodd" clip-rule="evenodd" d="M43.8777 52.5158H14.5922C13.2129 52.5158 12.0882 51.3952 12.0882 49.9564L11.9734 47.5687H46.2581L46.3769 50.0166C46.3769 51.3952 45.2563 52.5158 43.8777 52.5158ZM15.6095 36.5335C15.6095 28.6657 18.2373 23.4338 24.5841 18.2303L26.9913 23.1261C22.7254 26.6206 20.5607 30.9915 20.5607 36.5335C20.5607 39.5137 21.3208 42.4116 22.4983 45.1289H17.0149C16.1206 42.3506 15.6095 39.4714 15.6095 36.5335ZM24.5337 7.71274C24.2716 7.18051 24.4946 6.53272 25.0227 6.27068C25.0862 6.23894 25.2335 6.21127 25.4126 6.21127C25.7658 6.21127 26.2508 6.32602 26.4656 6.76303L26.7407 7.31886L24.8152 8.28728L24.5337 7.71274ZM41.7277 33.2791L36.097 36.1128L23.9697 11.444L24.7347 11.0599C24.7583 11.0501 24.7843 11.0542 24.8079 11.0428L28.9331 9.01645C28.9835 8.99203 28.9941 8.92612 29.0405 8.89438L29.5963 8.61524L41.7277 33.2791ZM48.6385 46.2894C48.6067 45.6375 48.0696 45.1289 47.4186 45.1289H25.1041C23.7703 42.467 23.0005 39.5275 23.0005 36.5335C23.0005 31.9054 24.6989 28.3548 28.1046 25.3926L34.4482 38.2979C34.5914 38.5884 34.8494 38.8106 35.1554 38.9139C35.2824 38.9579 35.4142 38.9774 35.5452 38.9774C35.7316 38.9774 35.9228 38.9343 36.0937 38.8464L43.9054 34.9165C44.5052 34.6187 44.7477 33.8911 44.4539 33.2873L31.2459 6.42937C31.0986 6.13966 30.8439 5.91667 30.5379 5.81332C30.236 5.70997 29.8942 5.73438 29.6004 5.88087L28.9225 6.22185L28.6588 5.68637C27.701 3.73569 25.2693 3.43295 23.9461 4.07748C22.2135 4.93523 21.49 7.04542 22.3405 8.79021L22.6342 9.38429L21.792 9.80746C21.1922 10.1053 20.9497 10.832 21.2443 11.4359L23.4692 15.9631C16.2207 21.7435 13.1697 27.7502 13.1697 36.5335C13.1697 39.4649 13.6775 42.3351 14.4962 45.1289H10.6901C10.3564 45.1289 10.0382 45.264 9.8079 45.5065C9.5776 45.749 9.4539 46.0746 9.47018 46.4082L9.6484 50.0166C9.6484 52.742 11.866 54.9556 14.5922 54.9556H43.8777C46.604 54.9556 48.8167 52.742 48.8167 49.9564L48.6385 46.2894Z" fill="#FED59D"/>
</g>
</g>
</g>
</g>
</g>
</g>
</g>
</g>
</g>
</g>
</g>
</svg>
