<svg preserveAspectRatio="none" width="100%" height="100%" overflow="visible" style="display: block;" viewBox="0 0 40.375 41" fill="none" xmlns="http://www.w3.org/2000/svg">
<g id="Frame 1321315084">
<path id="&#226;&#128;&#156;" d="M0 35.625L1.125 28.125C1.58333 25.0833 2.4375 22.1875 3.6875 19.4375C4.97917 16.6875 6.5625 14.125 8.4375 11.75C10.3542 9.375 12.5 7.25 14.875 5.375L21.3125 10.125C19.1875 12.7917 17.3333 15.5833 15.75 18.5C14.2083 21.375 13.125 24.5 12.5 27.875L11.125 35.625H0ZM19.0625 35.625L20.1875 28.125C20.6458 25.0833 21.5 22.1875 22.75 19.4375C24.0417 16.6875 25.625 14.125 27.5 11.75C29.4167 9.375 31.5625 7.25 33.9375 5.375L40.375 10.125C38.25 12.7917 36.3958 15.5833 34.8125 18.5C33.2708 21.375 32.1875 24.5 31.5625 27.875L30.1875 35.625H19.0625Z" fill="var(--fill-0, #9A8582)"/>
</g>
</svg>
