<svg preserveAspectRatio="none" width="100%" height="100%" overflow="visible" style="display: block;" viewBox="0 0 497 23.3357" fill="none" xmlns="http://www.w3.org/2000/svg">
<g id="Frame 1321315113">
<path id="Vector 5" d="M38.6628 21.8216L54.7505 15.1784C59.6769 13.1441 65.2115 13.1603 70.1259 15.2235L85.6715 21.7498C90.6234 23.8287 96.2032 23.8287 101.155 21.7498L116.637 15.2502C121.589 13.1713 127.169 13.1713 132.121 15.2502L147.666 21.7765C152.581 23.8397 158.115 23.8559 163.042 21.8216L179.13 15.1784C184.056 13.1441 189.591 13.1604 194.505 15.2235L210.051 21.7499C215.002 23.8287 220.582 23.8287 225.534 21.7499L240.951 15.2777C245.941 13.1826 251.568 13.1996 256.545 15.3247L271.484 21.7024C276.424 23.8116 282.005 23.8448 286.97 21.7946L302.992 15.1784C307.919 13.1441 313.453 13.1604 318.368 15.2235L333.913 21.7499C338.865 23.8288 344.445 23.8288 349.397 21.7499L364.879 15.2502C369.831 13.1713 375.411 13.1713 380.363 15.2502L395.908 21.7765C400.823 23.8397 406.357 23.8559 411.284 21.8216L427.371 15.1784C432.298 13.1442 437.832 13.1604 442.747 15.2235L458.292 21.7499C463.244 23.8288 468.824 23.8288 473.776 21.7499L497 12L497 4.34491e-05L1.04907e-06 0L0 12L23.2875 21.7765C28.2018 23.8397 33.7364 23.8559 38.6628 21.8216Z" fill="var(--fill-0, #312F3C)"/>
</g>
</svg>
