<svg width="1728" height="23" viewBox="0 0 1728 23" fill="none" preserveAspectRatio="none" xmlns="http://www.w3.org/2000/svg">
  <path id="Union" d="M1268.6 0.0692305C1273.81 -0.193869 1279.1 0.294837 1284.01 1.53603L1313.33 8.94814C1320.03 9.90337 1327.11 9.56993 1333.55 7.94325L1358.79 1.56435C1366.89 -0.484483 1376.03 -0.484563 1384.14 1.56435L1409.58 7.99696C1417.63 10.0301 1426.69 10.0457 1434.75 8.04091L1461.09 1.49306C1469.16 -0.511659 1478.22 -0.495377 1486.26 1.53798L1511.71 7.9706C1519.82 10.0193 1528.95 10.0195 1537.06 7.9706L1562.4 1.56435C1570.51 -0.484421 1579.65 -0.484499 1587.75 1.56435L1613.2 7.99696C1621.25 10.0302 1630.31 10.0458 1638.37 8.04091L1664.71 1.49306C1672.77 -0.511814 1681.83 -0.495434 1689.88 1.53798L1728 11.1737V23.0009H914.382V22.9999H0.000976562L0 11.1727L38.0195 1.56337C46.1258 -0.485518 55.2609 -0.485412 63.3672 1.56337L88.8164 7.99599C96.8612 10.0293 105.922 10.0447 113.986 8.03993L140.323 1.49208C148.388 -0.512851 157.448 -0.496236 165.493 1.537L190.942 7.96962C199.049 10.0185 208.184 10.0184 216.29 7.96962L241.636 1.56337C249.742 -0.48554 258.877 -0.485469 266.983 1.56337L292.433 7.99599C300.477 10.0293 309.538 10.0448 317.603 8.03993L343.832 1.51943C351.96 -0.501277 361.097 -0.46842 369.185 1.61025L393.64 7.8954C401.788 9.98988 410.999 10.0071 419.169 7.94228L444.407 1.56337C452.513 -0.485489 461.649 -0.485454 469.755 1.56337L495.204 7.99599C503.249 10.0293 512.31 10.0448 520.374 8.03993L546.711 1.49208C554.775 -0.512797 563.836 -0.496284 571.881 1.537L597.33 7.96962C605.436 10.0185 614.572 10.0184 622.678 7.96962L648.022 1.56337C651.446 0.697946 655.054 0.198718 658.69 0.0643477C663.87 -0.188129 669.126 0.30235 674.007 1.53603L699.456 7.96864C704.127 9.14913 709.139 9.64754 714.099 9.46767C717.469 9.30571 720.807 8.83127 723.99 8.03993L750.326 1.49208C758.391 -0.512879 767.452 -0.496278 775.497 1.537L802.426 8.34267C810.09 10.0217 818.542 9.92283 826.116 8.03993L852.346 1.51845C860.473 -0.502026 869.61 -0.469383 877.697 1.60927L902.152 7.8954C909.192 9.70485 917.026 9.96233 924.295 8.66786L952.4 1.56435C956.492 0.530069 960.847 0.0172717 965.198 0.0272383C969.64 -0.00506614 974.091 0.506632 978.268 1.56239L1003.72 7.99501C1007.71 9.00501 1011.96 9.51602 1016.21 9.53017C1020.34 9.50416 1024.47 9.00921 1028.37 8.04091L1054.7 1.49306C1058.77 0.482287 1063.09 -0.0143729 1067.4 0.00184771C1071.82 -0.0240874 1076.24 0.486608 1080.39 1.53603L1105.84 7.96864C1109.86 8.98306 1114.12 9.4939 1118.39 9.5038C1122.57 9.47353 1126.74 8.96381 1130.67 7.9706L1156.02 1.56435C1160.11 0.530177 1164.46 0.017325 1168.81 0.0272383C1173.26 -0.00506494 1177.71 0.506658 1181.88 1.56239L1207.33 7.99501C1211.33 9.00509 1215.58 9.51605 1219.83 9.53017C1223.96 9.50419 1228.09 9.00928 1231.98 8.04091L1258.21 1.5204C1261.55 0.690191 1265.06 0.206651 1268.6 0.0692305Z" fill="#EFE8E5"/>
</svg>
