<svg xmlns="http://www.w3.org/2000/svg" width="101.375" height="13.0" viewBox="0 0 101.375 13.0" preserveAspectRatio="none">
  <path d="M 0.0 6.5 L 1.584 6.01 L 3.168 5.525 L 4.752 5.049 L 6.336 4.587 L 7.92 4.143 L 9.504 3.722 L 11.088 3.328 L 12.672 2.964 L 14.256 2.635 L 15.84 2.343 L 17.424 2.09 L 19.008 1.881 L 20.592 1.715 L 22.176 1.596 L 23.76 1.524 L 25.344 1.5 L 26.928 1.524 L 28.512 1.596 L 30.096 1.715 L 31.68 1.881 L 33.264 2.09 L 34.848 2.343 L 36.432 2.635 L 38.016 2.964 L 39.6 3.328 L 41.184 3.722 L 42.768 4.143 L 44.352 4.587 L 45.936 5.049 L 47.52 5.525 L 49.104 6.01 L 50.688 6.5 L 52.271 6.99 L 53.855 7.475 L 55.439 7.951 L 57.023 8.413 L 58.607 8.857 L 60.191 9.278 L 61.775 9.672 L 63.359 10.036 L 64.943 10.365 L 66.527 10.657 L 68.111 10.91 L 69.695 11.119 L 71.279 11.285 L 72.863 11.404 L 74.447 11.476 L 76.031 11.5 L 77.615 11.476 L 79.199 11.404 L 80.783 11.285 L 82.367 11.119 L 83.951 10.91 L 85.535 10.657 L 87.119 10.365 L 88.703 10.036 L 90.287 9.672 L 91.871 9.278 L 93.455 8.857 L 95.039 8.413 L 96.623 7.951 L 98.207 7.475 L 99.791 6.99 L 101.375 6.5" fill="none" stroke="#413D57" stroke-width="2.4" stroke-linecap="round" stroke-linejoin="round"/>
</svg>
