<svg width="1728" height="23" viewBox="0 0 1728 23" fill="none" xmlns="http://www.w3.org/2000/svg" preserveAspectRatio="none">
  <path fill="#efe8e5" id="Union" d="M1268.66 0.0671634C1273.85 -0.189113 1279.12 0.300494 1284.01 1.53689L1313.32 8.94607C1320.03 9.90287 1327.11 9.57054 1333.55 7.94314L1358.79 1.56423C1366.89 -0.484597 1376.03 -0.484677 1384.14 1.56423L1409.58 7.99685C1417.63 10.03 1426.69 10.0456 1434.75 8.0408L1461.09 1.49294C1469.16 -0.511773 1478.22 -0.495491 1486.26 1.53787L1511.71 7.97048C1519.82 10.0192 1528.95 10.0194 1537.06 7.97048L1562.4 1.56423C1570.51 -0.484535 1579.65 -0.484613 1587.75 1.56423L1613.2 7.99685C1621.25 10.0301 1630.31 10.0457 1638.37 8.0408L1664.71 1.49294C1672.77 -0.511927 1681.83 -0.495548 1689.88 1.53787L1728 11.1736V23.0008H508.513V22.9998H0.000488281L-0.000488281 11.1726L38.019 1.56326C46.1253 -0.485632 55.2604 -0.485526 63.3667 1.56326L88.8159 7.99587C96.8606 10.0292 105.921 10.0446 113.986 8.03982L140.323 1.49197C148.387 -0.512965 157.448 -0.49635 165.493 1.53689L190.942 7.96951C199.048 10.0184 208.183 10.0182 216.29 7.96951L241.635 1.56326C249.742 -0.485654 258.877 -0.485583 266.983 1.56326L292.432 7.99587C300.477 10.0291 309.538 10.0446 317.602 8.03982L343.832 1.51931C351.959 -0.501391 361.097 -0.468534 369.184 1.61013L393.639 7.89529C401.788 9.98973 410.999 10.0069 419.168 7.94216L444.407 1.56326C452.513 -0.485603 461.648 -0.485568 469.754 1.56326L495.204 7.99587C503.248 10.0291 512.309 10.0446 520.374 8.03982L546.71 1.49197C554.775 -0.512911 563.836 -0.496398 571.88 1.53689L597.33 7.96951C605.436 10.0183 614.571 10.0183 622.677 7.96951L648.022 1.56326C651.47 0.691635 655.106 0.191364 658.768 0.061304C663.922 -0.182469 669.15 0.309413 674.006 1.53689L699.456 7.96951C704.113 9.14652 709.109 9.6459 714.055 9.47048C717.44 9.31053 720.793 8.83451 723.99 8.03982L750.326 1.49197C758.39 -0.512993 767.452 -0.496392 775.497 1.53689L802.463 8.35232C810.118 10.0226 818.555 9.92052 826.116 8.0408L852.345 1.51931C860.473 -0.501227 869.61 -0.46856 877.697 1.61013L902.152 7.89627C909.192 9.70566 917.025 9.96221 924.294 8.66775L952.4 1.56423C956.513 0.524616 960.891 0.0126651 965.265 0.0281009C969.685 0.00143455 974.111 0.512816 978.267 1.56326L1003.72 7.99587C1007.69 9.0005 1011.91 9.51074 1016.14 9.53005C1020.3 9.50905 1024.45 9.01436 1028.37 8.0408L1054.7 1.49294C1058.78 0.479733 1063.11 -0.0170102 1067.43 0.00173373C1071.84 -0.0216043 1076.25 0.489937 1080.39 1.53689L1105.84 7.96951C1109.84 8.97854 1114.08 9.48858 1118.32 9.50369C1122.53 9.47846 1126.72 8.96903 1130.67 7.97048L1156.02 1.56423C1160.13 0.524725 1164.51 0.0127188 1168.88 0.0281009C1173.3 0.00143722 1177.73 0.512839 1181.88 1.56326L1207.33 7.99587C1211.31 9.00057 1215.53 9.51077 1219.76 9.53005C1223.92 9.50909 1228.07 9.01443 1231.98 8.0408L1258.21 1.52029C1261.57 0.685342 1265.1 0.201396 1268.66 0.0671634Z"/>
</svg>
