<svg preserveAspectRatio="none" width="100%" height="100%" overflow="visible" style="display: block;" viewBox="0 0 2053.06 13.2736" fill="none" xmlns="http://www.w3.org/2000/svg">
<g id="Frame 1877942937">
<path id="Union" d="M581.103 2.01723L581.211 2.5054L581.218 2.50365L581.103 2.01723ZM597.228 0.566062L597.204 1.06552L597.206 1.06559L597.228 0.566062ZM608.127 2.05923L608.243 1.57282V1.57281L608.127 2.05923ZM635.152 8.49184L635.037 8.97825V8.97826L635.152 8.49184ZM661.837 8.49184L661.953 8.97826V8.97825L661.837 8.49184ZM688.751 2.08559L688.635 1.59918V1.59918L688.751 2.08559ZM700.157 0.574851L700.175 1.07457L700.18 1.07432L700.157 0.574851ZM716.575 2.05923L716.691 1.57282V1.57281L716.575 2.05923ZM743.601 8.49184L743.485 8.97825V8.97826L743.601 8.49184ZM758.975 9.97817L758.991 10.4779L758.997 10.4777L758.975 9.97817ZM769.425 8.56118L769.539 9.04802V9.04801L769.425 8.56118ZM797.392 2.01333L797.278 1.52649V1.52649L797.392 2.01333ZM823.54 1.8727L823.652 1.38539L823.648 1.38454L823.54 1.8727ZM824.352 2.05923L824.489 1.57846L824.476 1.57487L824.464 1.57193L824.352 2.05923ZM824.365 2.06313L824.228 2.54389L824.295 2.56313H824.365V2.06313ZM824.367 2.06313L824.489 1.57806L824.429 1.56313H824.367V2.06313ZM824.387 2.06802L824.517 1.58516L824.508 1.58294L824.387 2.06802ZM824.45 2.08559L824.321 2.5685L824.321 2.56852L824.45 2.08559ZM824.698 2.152L824.57 2.63513V2.63513L824.698 2.152ZM825.321 2.31606L825.194 2.79964L825.206 2.80247L825.321 2.31606ZM846.328 7.31704L846.212 7.80363L846.226 7.80646L846.328 7.31704ZM864.719 10.0016H865.219V9.50162L864.719 9.50161V10.0016ZM864.719 10.0397H864.219V10.5397L864.719 10.5397V10.0397ZM877.873 8.56216L877.987 9.04899L877.987 9.04899L877.873 8.56216ZM905.727 2.04067L905.613 1.55384L905.613 1.55384L905.727 2.04067ZM932.88 2.13247L932.998 1.6465V1.6465L932.88 2.13247ZM958.85 8.4186L958.732 8.90457V8.90457L958.85 8.4186ZM985.727 8.46548L985.842 8.95189V8.95188L985.727 8.46548ZM1012.53 2.08559L1012.41 1.59918V1.59919L1012.53 2.08559ZM1039.68 2.08559L1039.79 1.59918V1.59918L1039.68 2.08559ZM1066.7 8.51821L1066.59 9.00462V9.00462L1066.7 8.51821ZM1093.2 8.56216L1093.31 9.04899V9.04899L1093.2 8.56216ZM1121.17 2.0143L1121.05 1.52747V1.52747L1121.17 2.0143ZM1148.13 2.05923L1148.24 1.57282V1.57281L1148.13 2.05923ZM1175.15 8.49184L1175.04 8.97825V8.97826L1175.15 8.49184ZM1201.84 8.49184L1201.95 8.97826L1201.95 8.97825L1201.84 8.49184ZM1205.73 7.56509L1205.85 8.05149L1206.33 7.93499L1206.22 7.44636L1205.73 7.56509ZM1205.72 7.52114L1205.6 7.03607L1205.12 7.1567L1205.23 7.63987L1205.72 7.52114ZM1222.48 3.45766L1222.36 2.97085V2.97085L1222.48 3.45766ZM1227.1 2.38637L1226.99 1.89888V1.89888L1227.1 2.38637ZM1228.32 2.11196L1228.43 2.59977V2.59977L1228.32 2.11196ZM1228.63 2.04165L1228.52 1.55369V1.55369L1228.63 2.04165ZM1228.71 2.02407L1228.6 1.53601L1228.6 1.53604L1228.71 2.02407ZM1228.72 2.02016L1228.83 2.50827L1228.84 2.50658L1228.72 2.02016ZM1247.5 0.751609L1247.46 1.24959L1247.46 1.24983L1247.5 0.751609ZM1255.9 2.08559L1256.02 1.59918V1.59918L1255.9 2.08559ZM1282.92 8.51821L1282.81 9.00462V9.00462L1282.92 8.51821ZM1297 10.0368L1297.01 10.5367L1297.01 10.5367L1297 10.0368ZM1309.27 8.56509L1309.38 9.05192V9.05192L1309.27 8.56509ZM1337.24 2.01723L1337.12 1.5304V1.5304L1337.24 2.01723ZM1349.87 0.515281L1349.87 1.01525L1349.88 1.01523L1349.87 0.515281ZM1364.35 2.05923L1364.23 2.54564L1364.29 2.55923H1364.35V2.05923ZM1364.35 2.05923L1364.47 1.57298L1364.41 1.55923H1364.35V2.05923ZM1391.22 8.49477L1391.11 8.98102L1391.11 8.98119L1391.22 8.49477ZM1417.91 8.49477L1418.02 8.98119V8.98119L1417.91 8.49477ZM1444.82 2.08852L1444.71 1.60211V1.60211L1444.82 2.08852ZM1471.97 2.08852L1472.09 1.60211V1.60211L1471.97 2.08852ZM1499 8.52114L1498.88 9.00755V9.00755L1499 8.52114ZM1525.49 8.56509L1525.61 9.05192V9.05192L1525.49 8.56509ZM1553.35 2.0436L1553.23 1.55677V1.55677L1553.35 2.0436ZM1580.5 2.1354L1580.62 1.64943V1.64943L1580.5 2.1354ZM1606.47 8.42153L1606.35 8.9075V8.9075L1606.47 8.42153ZM1633.35 8.46841L1633.46 8.95482L1633.46 8.95481L1633.35 8.46841ZM1660.15 2.08852L1660.03 1.60211L1660.03 1.60212L1660.15 2.08852ZM1687.3 2.08852L1687.41 1.60211V1.60211L1687.3 2.08852ZM1714.32 8.52114L1714.21 9.00755V9.00755L1714.32 8.52114ZM1740.82 8.56509L1740.94 9.05192V9.05192L1740.82 8.56509ZM1768.79 2.01723L1768.68 1.5304V1.5304L1768.79 2.01723ZM1795.75 2.06216L1795.86 1.57574V1.57574L1795.75 2.06216ZM1822.77 8.49477L1822.66 8.98118V8.98119L1822.77 8.49477ZM1849.46 8.49477L1849.57 8.98119V8.98118L1849.46 8.49477ZM1876.37 2.08852L1876.26 1.60211V1.60211L1876.37 2.08852ZM1903.52 2.08852L1903.64 1.60211V1.60211L1903.52 2.08852ZM1930.55 8.52114L1930.43 9.00755V9.00755L1930.55 8.52114ZM1957.05 8.56509L1957.16 9.05192V9.05192L1957.05 8.56509ZM1985.01 2.01723L1984.9 1.5304V1.5304L1985.01 2.01723ZM2011.97 2.06216L2011.86 2.54857L2011.91 2.56216H2011.97V2.06216ZM2011.97 2.06216L2012.09 1.57575L2012.03 1.56216H2011.97V2.06216ZM2052.46 11.6989L2052.94 11.8151L2053.06 11.3284L2052.57 11.2125L2052.46 11.6989ZM2052.22 12.6715L2052.11 13.1579L2052.59 13.2736L2052.71 12.7877L2052.22 12.6715ZM2011.74 3.03481L2011.86 2.5484L2011.86 2.5484L2011.74 3.03481ZM1985.24 2.99087L1985.13 2.50403V2.50403L1985.24 2.99087ZM1957.27 9.53872L1957.39 10.0256V10.0256L1957.27 9.53872ZM1930.31 9.4938L1930.2 9.98021V9.98021L1930.31 9.4938ZM1903.29 3.06118L1903.41 2.57477V2.57477L1903.29 3.06118ZM1876.6 3.06118L1876.49 2.57477V2.57477L1876.6 3.06118ZM1849.69 9.46743L1849.81 9.95384V9.95384L1849.69 9.46743ZM1822.54 9.46743L1822.43 9.95384V9.95384L1822.54 9.46743ZM1795.52 3.03481L1795.63 2.5484V2.5484L1795.52 3.03481ZM1769.02 2.99087L1768.9 2.50403V2.50403L1769.02 2.99087ZM1741.05 9.53872L1741.16 10.0256V10.0256L1741.05 9.53872ZM1714.09 9.4938L1713.98 9.98021V9.98021L1714.09 9.4938ZM1687.07 3.06118L1687.18 2.57477V2.57477L1687.07 3.06118ZM1660.38 3.06118L1660.27 2.57477L1660.27 2.57477L1660.38 3.06118ZM1633.58 9.44106L1633.7 9.92747L1633.7 9.92747L1633.58 9.44106ZM1606.24 9.39321L1606.12 9.87918V9.87918L1606.24 9.39321ZM1580.27 3.10708L1580.38 2.62111V2.62111L1580.27 3.10708ZM1553.58 3.01723L1553.46 2.5304V2.5304L1553.58 3.01723ZM1525.72 9.53872L1525.84 10.0256V10.0256L1525.72 9.53872ZM1498.76 9.4938L1498.65 9.98021V9.98021L1498.76 9.4938ZM1471.74 3.06118L1471.85 2.57477V2.57477L1471.74 3.06118ZM1445.05 3.06118L1444.94 2.57477V2.57477L1445.05 3.06118ZM1418.14 9.46743L1418.25 9.95384V9.95384L1418.14 9.46743ZM1390.99 9.46743L1391.11 8.98102L1390.49 8.83445V9.46743H1390.99ZM1390.99 9.46841L1390.87 9.95459L1391.49 10.1027V9.46841H1390.99ZM1390.35 9.31411L1390.46 8.82793L1390.46 8.8277L1390.35 9.31411ZM1363.96 3.03481L1364.08 2.5484V2.5484L1363.96 3.03481ZM1349.13 1.53091L1349.11 1.03106L1349.11 1.03109L1349.13 1.53091ZM1337.62 2.98794L1337.51 2.5011V2.5011L1337.62 2.98794ZM1309.65 9.53579L1309.77 10.0226V10.0226L1309.65 9.53579ZM1297.02 11.0368L1297.01 10.5368L1297.01 10.5368L1297.02 11.0368ZM1282.54 9.4938L1282.42 9.98021V9.98021L1282.54 9.4938ZM1255.51 3.06118L1255.63 2.57477V2.57477L1255.51 3.06118ZM1247.39 1.74673L1247.44 1.24874L1247.44 1.24849L1247.39 1.74673ZM1228.98 3.05825L1228.87 2.57184V2.57184L1228.98 3.05825ZM1202.07 9.4645L1202.18 9.95091V9.95091L1202.07 9.4645ZM1174.92 9.4645L1174.8 9.95091V9.95091L1174.92 9.4645ZM1147.89 3.03188L1148.01 2.54547V2.54547L1147.89 3.03188ZM1121.4 2.98794L1121.28 2.5011V2.5011L1121.4 2.98794ZM1093.43 9.53579L1093.54 10.0226V10.0226L1093.43 9.53579ZM1066.47 9.49087L1066.35 9.97728V9.97728L1066.47 9.49087ZM1039.44 3.05825L1039.56 2.57184V2.57184L1039.44 3.05825ZM1012.76 3.05825L1012.64 2.57184V2.57184L1012.76 3.05825ZM985.959 9.43813L986.075 9.92454V9.92454L985.959 9.43813ZM958.615 9.39028L958.498 9.87625V9.87625L958.615 9.39028ZM932.646 3.10415L932.763 2.61818V2.61818L932.646 3.10415ZM905.955 3.0143L905.841 2.52747L905.841 2.52747L905.955 3.0143ZM878.102 9.53579L878.216 10.0226L878.216 10.0226L878.102 9.53579ZM851.143 9.49087L851.027 9.97726L851.027 9.97728L851.143 9.49087ZM846.152 8.30239L846.268 7.81581L846.255 7.81296L846.152 8.30239ZM840.241 7.01137L840.13 7.49892V7.49893L840.241 7.01137ZM828.891 4.27309L828.768 4.7577V4.7577L828.891 4.27309ZM825.397 3.37075L825.269 3.85432V3.85432L825.397 3.37075ZM825.095 3.29067L825.222 2.80707L825.21 2.80423L825.095 3.29067ZM824.117 3.05825L824.001 3.54466L824.002 3.54469L824.117 3.05825ZM797.433 3.05825L797.317 2.57184V2.57184L797.433 3.05825ZM770.518 9.4645L770.633 9.95091V9.95091L770.518 9.4645ZM759.026 10.9772L759.01 10.4774L759.004 10.4777L759.026 10.9772ZM742.693 9.49087L742.578 9.97728V9.97728L742.693 9.49087ZM715.669 3.05825L715.785 2.57184V2.57184L715.669 3.05825ZM700.24 1.57192L700.223 1.07219L700.218 1.07244L700.24 1.57192ZM689.845 2.98794L689.731 2.5011V2.5011L689.845 2.98794ZM661.877 9.53579L661.991 10.0226V10.0226L661.877 9.53579ZM634.918 9.49087L634.802 9.97728V9.97728L634.918 9.49087ZM607.893 3.05825L608.008 2.57184V2.57184L607.893 3.05825ZM597.176 1.56509L597.199 1.06562L597.197 1.06555L597.176 1.56509ZM581.397 2.98696L581.283 2.50012V2.50012L581.397 2.98696ZM567.009 6.35512L566.895 5.86827L566.891 5.8692L567.009 6.35512ZM558.34 8.48891L557.856 8.61356L557.98 9.09441L558.461 8.97399L558.34 8.48891ZM558.315 8.39028L558.799 8.26563L558.677 7.79188L558.201 7.90346L558.315 8.39028ZM553.429 9.53481L553.543 10.0216L553.543 10.0216L553.429 9.53481ZM526.47 9.49087L526.354 9.97728V9.97728L526.47 9.49087ZM499.444 3.05825L499.56 2.57184L499.56 2.57184L499.444 3.05825ZM472.76 3.05825L472.644 2.57184L472.644 2.57184L472.76 3.05825ZM445.959 9.43716L445.843 8.95074V8.95074L445.959 9.43716ZM418.615 9.39028L418.733 8.90431V8.90431L418.615 9.39028ZM392.646 3.10512L392.528 3.59109V3.5911L392.646 3.10512ZM365.955 3.0143L366.069 3.50114V3.50114L365.955 3.0143ZM338.102 9.53481L337.988 9.04797V9.04798L338.102 9.53481ZM311.143 9.49087L311.027 9.97728V9.97728L311.143 9.49087ZM284.117 3.05825L284.233 2.57184L284.233 2.57184L284.117 3.05825ZM257.433 3.05825L257.317 2.57184L257.317 2.57184L257.433 3.05825ZM230.518 9.4645L230.633 9.95091V9.95091L230.518 9.4645ZM203.368 9.4645L203.252 9.95091L203.252 9.95091L203.368 9.4645ZM176.343 3.03188L176.459 2.54547L176.459 2.54547L176.343 3.03188ZM149.845 2.98696L149.731 2.50012L149.731 2.50013L149.845 2.98696ZM121.877 9.53481L121.991 10.0216L121.991 10.0216L121.877 9.53481ZM94.918 9.49087L94.8023 9.97728L94.8023 9.97728L94.918 9.49087ZM67.8927 3.05825L68.0084 2.57184L68.0084 2.57184L67.8927 3.05825ZM41.2081 3.05825L41.0923 2.57184L41.0923 2.57184L41.2081 3.05825ZM0.83504 12.6676L0.348732 12.7838L0.464835 13.2697L0.950813 13.154L0.83504 12.6676ZM0.602618 11.695L0.486845 11.2086L0 11.3244L0.11631 11.8112L0.602618 11.695ZM40.9757 2.08559L40.8599 1.59918V1.59918L40.9757 2.08559ZM68.1251 2.08559L68.2409 1.59918L68.2408 1.59918L68.1251 2.08559ZM95.1505 8.51821L95.0347 9.00462L95.0347 9.00462L95.1505 8.51821ZM121.649 8.56118L121.762 9.04802L121.762 9.04802L121.649 8.56118ZM149.616 2.01333L149.502 1.52649L149.502 1.52649L149.616 2.01333ZM176.575 2.05923L176.691 1.57282L176.691 1.57281L176.575 2.05923ZM203.601 8.49184L203.485 8.97825L203.485 8.97826L203.601 8.49184ZM230.285 8.49184L230.401 8.97826V8.97826L230.285 8.49184ZM257.2 2.08559L257.084 1.59918V1.59918L257.2 2.08559ZM284.35 2.08559L284.465 1.59918V1.59918L284.35 2.08559ZM311.375 8.51821L311.259 9.00462L311.259 9.00462L311.375 8.51821ZM337.873 8.56118L337.759 8.07434V8.07434L337.873 8.56118ZM365.727 2.04067L365.841 2.52751V2.52751L365.727 2.04067ZM392.88 2.13247L392.762 2.61844V2.61844L392.88 2.13247ZM418.85 8.41762L418.967 7.93166V7.93165L418.85 8.41762ZM445.727 8.4645L445.842 8.95091L445.842 8.95091L445.727 8.4645ZM472.527 2.08559L472.412 1.59918V1.59918L472.527 2.08559ZM499.677 2.08559L499.793 1.59918V1.59918L499.677 2.08559ZM526.702 8.51821L526.586 9.00462V9.00462L526.702 8.51821ZM553.2 8.56118L553.314 9.04802L553.314 9.04801L553.2 8.56118ZM566.733 5.39223L566.847 5.87908L566.851 5.87816L566.733 5.39223ZM574.855 3.45473L574.74 2.96792V2.96792L574.855 3.45473ZM579.483 2.38345L579.371 1.89595V1.89595L579.483 2.38345ZM580.695 2.10903L580.805 2.59684V2.59684L580.695 2.10903ZM581.005 2.03872L580.896 1.55076V1.55077L581.005 2.03872ZM581.084 2.02114L580.975 1.5331L580.975 1.53311L581.084 2.02114ZM581.103 2.01723L581.218 2.50365C586.339 1.28494 591.803 0.814053 597.204 1.06552L597.228 0.566062L597.251 0.0666034C591.762 -0.188909 586.204 0.288982 580.987 1.53082L581.103 2.01723ZM597.228 0.566062L597.206 1.06559C600.892 1.2257 604.542 1.71984 608.011 2.54564L608.127 2.05923L608.243 1.57281C604.708 0.731466 600.995 0.22923 597.249 0.0665335L597.228 0.566062ZM608.127 2.05923L608.011 2.54564L635.037 8.97825L635.152 8.49184L635.268 8.00543L608.243 1.57282L608.127 2.05923ZM635.152 8.49184L635.037 8.97826C643.645 11.0269 653.345 11.027 661.953 8.97826L661.837 8.49184L661.721 8.00543C653.266 10.0179 643.724 10.0179 635.268 8.00543L635.152 8.49184ZM661.837 8.49184L661.953 8.97825L688.867 2.572L688.751 2.08559L688.635 1.59918L661.721 8.00543L661.837 8.49184ZM688.751 2.08559L688.867 2.57201C692.494 1.70861 696.318 1.20999 700.175 1.07454L700.157 0.574851L700.14 0.0751596C696.221 0.212781 692.331 0.719462 688.635 1.59918L688.751 2.08559ZM700.157 0.574851L700.18 1.07432C705.688 0.8203 711.274 1.31147 716.459 2.54564L716.575 2.05923L716.691 1.57281C711.409 0.315709 705.73 -0.182673 700.134 0.0753824L700.157 0.574851ZM716.575 2.05923L716.459 2.54564L743.485 8.97825L743.601 8.49184L743.716 8.00543L716.691 1.57282L716.575 2.05923ZM743.601 8.49184L743.485 8.97826C748.434 10.1562 753.741 10.6535 758.991 10.4779L758.975 9.97817L758.958 9.47845C753.791 9.6513 748.573 9.16135 743.716 8.00543L743.601 8.49184ZM758.975 9.97817L758.997 10.4777C762.586 10.3173 766.145 9.84257 769.539 9.04802L769.425 8.56118L769.311 8.07434C765.981 8.85388 762.484 9.3209 758.952 9.47867L758.975 9.97817ZM769.425 8.56118L769.539 9.04801L797.506 2.50016L797.392 2.01333L797.278 1.52649L769.311 8.07435L769.425 8.56118ZM797.392 2.01333L797.506 2.50016C805.802 0.558017 815.092 0.512947 823.432 2.36086L823.54 1.8727L823.648 1.38454C815.163 -0.495601 805.721 -0.450066 797.278 1.52649L797.392 2.01333ZM823.54 1.8727L823.428 2.36L824.24 2.54652L824.352 2.05923L824.464 1.57193L823.652 1.38541L823.54 1.8727ZM824.352 2.05923L824.214 2.53999L824.228 2.54389L824.365 2.06313L824.503 1.58237L824.489 1.57846L824.352 2.05923ZM824.365 2.06313V2.56313H824.367V2.06313V1.56313H824.365V2.06313ZM824.367 2.06313L824.246 2.5482L824.266 2.55309L824.387 2.06802L824.508 1.58294L824.489 1.57806L824.367 2.06313ZM824.387 2.06802L824.257 2.55079C824.26 2.55178 824.265 2.55317 824.278 2.55682C824.29 2.55999 824.304 2.56405 824.321 2.5685L824.45 2.08559L824.58 1.60269C824.569 1.59974 824.559 1.5969 824.549 1.59408C824.54 1.59173 824.527 1.58804 824.517 1.58524L824.387 2.06802ZM824.45 2.08559L824.321 2.56852C824.376 2.58342 824.461 2.60611 824.57 2.63513L824.698 2.152L824.827 1.66887C824.719 1.64011 824.636 1.6177 824.58 1.60267L824.45 2.08559ZM824.698 2.152L824.57 2.63513C824.726 2.67678 824.939 2.73232 825.194 2.7995L825.321 2.31606L825.449 1.83263C825.188 1.76379 824.983 1.71041 824.827 1.66887L824.698 2.152ZM825.321 2.31606L825.206 2.80247L846.212 7.80345L846.328 7.31704L846.444 6.83063L825.437 1.82966L825.321 2.31606ZM846.328 7.31704L846.226 7.80646C853.29 9.28289 860.413 10.5015 864.719 10.5016V10.0016V9.50161C860.532 9.50154 853.506 8.30644 846.43 6.82762L846.328 7.31704ZM864.719 10.0016H864.219V10.0397H864.719H865.219V10.0016H864.719ZM864.719 10.0397V10.5397C869.225 10.5396 873.735 10.0444 877.987 9.04899L877.873 8.56216L877.759 8.07532C873.587 9.05206 869.154 9.53958 864.719 9.5397V10.0397ZM877.873 8.56216L877.987 9.04899L905.841 2.52751L905.727 2.04067L905.613 1.55384L877.759 8.07532L877.873 8.56216ZM905.727 2.04067L905.841 2.52751C914.472 0.50684 924.174 0.539812 932.762 2.61844L932.88 2.13247L932.998 1.6465C924.257 -0.469064 914.396 -0.502399 905.613 1.55384L905.727 2.04067ZM932.88 2.13247L932.762 2.61843L958.732 8.90457L958.85 8.4186L958.967 7.93264L932.998 1.6465L932.88 2.13247ZM958.85 8.4186L958.732 8.90457C967.385 10.999 977.167 11.0167 985.842 8.95189L985.727 8.46548L985.611 7.97906C977.089 10.0074 967.467 9.98995 958.967 7.93263L958.85 8.4186ZM985.727 8.46548L985.842 8.95188L1012.64 2.572L1012.53 2.08559L1012.41 1.59919L985.611 7.97907L985.727 8.46548ZM1012.53 2.08559L1012.64 2.57201C1021.25 0.523138 1030.95 0.523102 1039.56 2.57201L1039.68 2.08559L1039.79 1.59918C1031.03 -0.485957 1021.17 -0.485919 1012.41 1.59918L1012.53 2.08559ZM1039.68 2.08559L1039.56 2.572L1066.59 9.00462L1066.7 8.51821L1066.82 8.0318L1039.79 1.59918L1039.68 2.08559ZM1066.7 8.51821L1066.59 9.00462C1075.13 11.038 1084.75 11.0539 1093.31 9.04899L1093.2 8.56216L1093.09 8.07532C1084.67 10.0449 1075.21 10.0291 1066.82 8.0318L1066.7 8.51821ZM1093.2 8.56216L1093.31 9.04899L1121.28 2.50114L1121.17 2.0143L1121.05 1.52747L1093.09 8.07532L1093.2 8.56216ZM1121.17 2.0143L1121.28 2.50114C1129.85 0.496275 1139.47 0.51237 1148.01 2.54564L1148.13 2.05923L1148.24 1.57281C1139.55 -0.496456 1129.77 -0.512729 1121.05 1.52747L1121.17 2.0143ZM1148.13 2.05923L1148.01 2.54564L1175.04 8.97825L1175.15 8.49184L1175.27 8.00543L1148.24 1.57282L1148.13 2.05923ZM1175.15 8.49184L1175.04 8.97826C1183.64 11.0271 1193.34 11.0271 1201.95 8.97826L1201.84 8.49184L1201.72 8.00543C1193.27 10.018 1183.72 10.0181 1175.27 8.00543L1175.15 8.49184ZM1201.84 8.49184L1201.95 8.97825L1205.85 8.05149L1205.73 7.56509L1205.61 7.07868L1201.72 8.00544L1201.84 8.49184ZM1205.73 7.56509L1206.22 7.44636L1206.2 7.40241L1205.72 7.52114L1205.23 7.63987L1205.24 7.68381L1205.73 7.56509ZM1205.72 7.52114L1205.84 8.00621C1212.84 6.2563 1218.59 4.88191 1222.59 3.94447L1222.48 3.45766L1222.36 2.97085C1218.36 3.90925 1212.6 5.2848 1205.6 7.03607L1205.72 7.52114ZM1222.48 3.45766L1222.59 3.94447C1224.59 3.47578 1226.15 3.11602 1227.21 2.87387L1227.1 2.38637L1226.99 1.89888C1225.93 2.14148 1224.36 2.5017 1222.36 2.97085L1222.48 3.45766ZM1227.1 2.38637L1227.21 2.87387C1227.75 2.75286 1228.15 2.66137 1228.43 2.59977L1228.32 2.11196L1228.21 1.62415C1227.93 1.68578 1227.52 1.77753 1226.99 1.89888L1227.1 2.38637ZM1228.32 2.11196L1228.43 2.59977C1228.57 2.56679 1228.66 2.54621 1228.74 2.5296L1228.63 2.04165L1228.52 1.55369C1228.45 1.56816 1228.33 1.59566 1228.21 1.62415L1228.32 2.11196ZM1228.63 2.04165L1228.74 2.5296C1228.77 2.52159 1228.79 2.51668 1228.81 2.5121L1228.71 2.02407L1228.6 1.53604C1228.58 1.53928 1228.55 1.54618 1228.52 1.55369L1228.63 2.04165ZM1228.71 2.02407L1228.81 2.51213C1228.81 2.51219 1228.81 2.51214 1228.82 2.51167C1228.82 2.51155 1228.82 2.51099 1228.82 2.51058C1228.82 2.51012 1228.83 2.50928 1228.83 2.50822L1228.72 2.02016L1228.62 1.53211C1228.62 1.53153 1228.62 1.53119 1228.62 1.53128C1228.62 1.53142 1228.62 1.53145 1228.62 1.53196C1228.61 1.53276 1228.6 1.53418 1228.6 1.53601L1228.71 2.02407ZM1228.72 2.02016L1228.84 2.50658C1234.79 1.08946 1241.21 0.685108 1247.46 1.24958L1247.5 0.751609L1247.55 0.25364C1241.2 -0.319892 1234.67 0.0899021 1228.61 1.53375L1228.72 2.02016ZM1247.5 0.751609L1247.46 1.24983C1250.3 1.48998 1253.09 1.93177 1255.78 2.57201L1255.9 2.08559L1256.02 1.59918C1253.28 0.946877 1250.43 0.49753 1247.54 0.253389L1247.5 0.751609ZM1255.9 2.08559L1255.78 2.572L1282.81 9.00462L1282.92 8.51821L1283.04 8.0318L1256.02 1.59918L1255.9 2.08559ZM1282.92 8.51821L1282.81 9.00462C1287.35 10.0848 1292.19 10.5951 1297.01 10.5367L1297 10.0368L1297 9.5368C1292.25 9.59421 1287.49 9.09181 1283.04 8.0318L1282.92 8.51821ZM1297 10.0368L1297.01 10.5367C1301.22 10.4751 1305.41 9.98132 1309.38 9.05192L1309.27 8.56509L1309.16 8.07825C1305.26 8.99024 1301.14 9.47622 1297 9.53682L1297 10.0368ZM1309.27 8.56509L1309.38 9.05192L1337.35 2.50407L1337.24 2.01723L1337.12 1.5304L1309.16 8.07825L1309.27 8.56509ZM1337.24 2.01723L1337.35 2.50407C1341.36 1.56453 1345.61 1.06716 1349.87 1.01524L1349.87 0.515281L1349.86 0.0153183C1345.53 0.0680624 1341.21 0.573335 1337.12 1.5304L1337.24 2.01723ZM1349.87 0.515281L1349.88 1.01523C1354.75 0.94361 1359.65 1.45475 1364.23 2.54564L1364.35 2.05923L1364.47 1.57281C1359.8 0.461551 1354.82 -0.0574209 1349.86 0.015335L1349.87 0.515281ZM1364.35 2.05923V2.55923H1364.35V2.05923V1.55923H1364.35V2.05923ZM1364.35 2.05923L1364.24 2.54547L1391.11 8.98102L1391.22 8.49477L1391.34 8.00853L1364.47 1.57298L1364.35 2.05923ZM1391.22 8.49477L1391.11 8.98119C1399.71 11.03 1409.41 11.0299 1418.02 8.98119L1417.91 8.49477L1417.79 8.00836C1409.33 10.0209 1399.79 10.0209 1391.34 8.00836L1391.22 8.49477ZM1417.91 8.49477L1418.02 8.98119L1444.94 2.57493L1444.82 2.08852L1444.71 1.60211L1417.79 8.00836L1417.91 8.49477ZM1444.82 2.08852L1444.94 2.57494C1453.55 0.526071 1463.25 0.526062 1471.86 2.57494L1471.97 2.08852L1472.09 1.60211C1463.33 -0.482997 1453.47 -0.482987 1444.71 1.60211L1444.82 2.08852ZM1471.97 2.08852L1471.86 2.57493L1498.88 9.00755L1499 8.52114L1499.11 8.03473L1472.09 1.60211L1471.97 2.08852ZM1499 8.52114L1498.88 9.00755C1507.42 11.0408 1517.04 11.0568 1525.61 9.05192L1525.49 8.56509L1525.38 8.07825C1516.97 10.0478 1507.5 10.032 1499.11 8.03473L1499 8.52114ZM1525.49 8.56509L1525.61 9.05192L1553.46 2.53044L1553.35 2.0436L1553.23 1.55677L1525.38 8.07825L1525.49 8.56509ZM1553.35 2.0436L1553.46 2.53044C1562.09 0.509784 1571.8 0.542756 1580.38 2.62137L1580.5 2.1354L1580.62 1.64943C1571.88 -0.466119 1562.02 -0.499455 1553.23 1.55677L1553.35 2.0436ZM1580.5 2.1354L1580.38 2.62136L1606.35 8.9075L1606.47 8.42153L1606.59 7.93556L1580.62 1.64943L1580.5 2.1354ZM1606.47 8.42153L1606.35 8.9075C1615.01 11.002 1624.79 11.0196 1633.46 8.95482L1633.35 8.46841L1633.23 7.98199C1624.71 10.0103 1615.09 9.9929 1606.59 7.93556L1606.47 8.42153ZM1633.35 8.46841L1633.46 8.95481L1660.26 2.57493L1660.15 2.08852L1660.03 1.60212L1633.23 7.982L1633.35 8.46841ZM1660.15 2.08852L1660.26 2.57494C1668.87 0.526083 1678.57 0.526047 1687.18 2.57494L1687.3 2.08852L1687.41 1.60211C1678.65 -0.483012 1668.79 -0.482975 1660.03 1.60211L1660.15 2.08852ZM1687.3 2.08852L1687.18 2.57493L1714.21 9.00755L1714.32 8.52114L1714.44 8.03473L1687.41 1.60211L1687.3 2.08852ZM1714.32 8.52114L1714.21 9.00755C1722.75 11.0409 1732.37 11.0568 1740.94 9.05192L1740.82 8.56509L1740.71 8.07825C1732.29 10.0478 1722.83 10.0321 1714.44 8.03473L1714.32 8.52114ZM1740.82 8.56509L1740.94 9.05192L1768.9 2.50407L1768.79 2.01723L1768.68 1.5304L1740.71 8.07825L1740.82 8.56509ZM1768.79 2.01723L1768.9 2.50407C1777.47 0.499219 1787.09 0.515314 1795.63 2.54857L1795.75 2.06216L1795.86 1.57574C1787.17 -0.493511 1777.39 -0.509784 1768.68 1.5304L1768.79 2.01723ZM1795.75 2.06216L1795.63 2.54857L1822.66 8.98118L1822.77 8.49477L1822.89 8.00836L1795.86 1.57574L1795.75 2.06216ZM1822.77 8.49477L1822.66 8.98119C1831.26 11.0301 1840.97 11.03 1849.57 8.98119L1849.46 8.49477L1849.34 8.00836C1840.89 10.021 1831.34 10.021 1822.89 8.00836L1822.77 8.49477ZM1849.46 8.49477L1849.57 8.98118L1876.49 2.57493L1876.37 2.08852L1876.26 1.60211L1849.34 8.00836L1849.46 8.49477ZM1876.37 2.08852L1876.49 2.57494C1885.1 0.526031 1894.8 0.526103 1903.41 2.57494L1903.52 2.08852L1903.64 1.60211C1894.88 -0.482954 1885.02 -0.48303 1876.26 1.60211L1876.37 2.08852ZM1903.52 2.08852L1903.41 2.57493L1930.43 9.00755L1930.55 8.52114L1930.66 8.03473L1903.64 1.60211L1903.52 2.08852ZM1930.55 8.52114L1930.43 9.00755C1938.97 11.041 1948.6 11.0569 1957.16 9.05192L1957.05 8.56509L1956.93 8.07825C1948.52 10.0479 1939.05 10.0322 1930.66 8.03473L1930.55 8.52114ZM1957.05 8.56509L1957.16 9.05192L1985.13 2.50407L1985.01 2.01723L1984.9 1.5304L1956.93 8.07825L1957.05 8.56509ZM1985.01 2.01723L1985.13 2.50407C1993.69 0.499133 2003.31 0.515251 2011.86 2.54857L2011.97 2.06216L2012.09 1.57574C2003.39 -0.493574 1993.61 -0.509872 1984.9 1.5304L1985.01 2.01723ZM2011.97 2.06216V2.56216H2011.97V2.06216V1.56216H2011.97V2.06216ZM2011.97 2.06216L2011.86 2.54857L2052.34 12.1853L2052.46 11.6989L2052.57 11.2125L2012.09 1.57575L2011.97 2.06216ZM2052.46 11.6989L2051.97 11.5827L2051.74 12.5553L2052.22 12.6715L2052.71 12.7877L2052.94 11.8151L2052.46 11.6989ZM2052.22 12.6715L2052.34 12.1851L2011.86 2.5484L2011.74 3.03481L2011.62 3.52122L2052.11 13.1579L2052.22 12.6715ZM2011.74 3.03481L2011.86 2.5484C2003.31 0.515111 1993.69 0.499174 1985.13 2.50403L1985.24 2.99087L1985.36 3.4777C1993.77 1.50817 2003.23 1.52394 2011.62 3.52123L2011.74 3.03481ZM1985.24 2.99087L1985.13 2.50403L1957.16 9.05188L1957.27 9.53872L1957.39 10.0256L1985.36 3.4777L1985.24 2.99087ZM1957.27 9.53872L1957.16 9.05188C1948.6 11.0569 1938.97 11.0408 1930.43 9.00739L1930.31 9.4938L1930.2 9.98021C1938.89 12.0497 1948.67 12.0659 1957.39 10.0256L1957.27 9.53872ZM1930.31 9.4938L1930.43 9.00739L1903.41 2.57477L1903.29 3.06118L1903.17 3.54759L1930.2 9.98021L1930.31 9.4938ZM1903.29 3.06118L1903.41 2.57477C1894.8 0.525924 1885.1 0.525858 1876.49 2.57477L1876.6 3.06118L1876.72 3.54759C1885.18 1.53492 1894.72 1.53498 1903.17 3.54759L1903.29 3.06118ZM1876.6 3.06118L1876.49 2.57477L1849.57 8.98102L1849.69 9.46743L1849.81 9.95384L1876.72 3.54759L1876.6 3.06118ZM1849.69 9.46743L1849.57 8.98102C1840.97 11.0299 1831.27 11.0299 1822.66 8.98102L1822.54 9.46743L1822.43 9.95384C1831.19 12.0389 1841.04 12.0389 1849.81 9.95384L1849.69 9.46743ZM1822.54 9.46743L1822.66 8.98102L1795.63 2.5484L1795.52 3.03481L1795.4 3.52122L1822.43 9.95384L1822.54 9.46743ZM1795.52 3.03481L1795.63 2.5484C1787.09 0.515175 1777.47 0.499259 1768.9 2.50403L1769.02 2.99087L1769.13 3.4777C1777.54 1.50826 1787.01 1.524 1795.4 3.52123L1795.52 3.03481ZM1769.02 2.99087L1768.9 2.50403L1740.94 9.05188L1741.05 9.53872L1741.16 10.0256L1769.13 3.4777L1769.02 2.99087ZM1741.05 9.53872L1740.94 9.05188C1732.37 11.0568 1722.75 11.0407 1714.21 9.00738L1714.09 9.4938L1713.98 9.98021C1722.67 12.0496 1732.45 12.0658 1741.16 10.0256L1741.05 9.53872ZM1714.09 9.4938L1714.21 9.00739L1687.18 2.57477L1687.07 3.06118L1686.95 3.54759L1713.98 9.98021L1714.09 9.4938ZM1687.07 3.06118L1687.18 2.57477C1678.57 0.526 1668.87 0.526044 1660.27 2.57477L1660.38 3.06118L1660.5 3.54759C1668.95 1.5351 1678.49 1.53506 1686.95 3.54759L1687.07 3.06118ZM1660.38 3.06118L1660.27 2.57477L1633.46 8.95465L1633.58 9.44106L1633.7 9.92747L1660.5 3.54759L1660.38 3.06118ZM1633.58 9.44106L1633.46 8.95465C1624.79 11.0195 1615.01 11.0017 1606.35 8.90724L1606.24 9.39321L1606.12 9.87918C1614.93 12.0108 1624.87 12.0289 1633.7 9.92747L1633.58 9.44106ZM1606.24 9.39321L1606.35 8.90725L1580.38 2.62111L1580.27 3.10708L1580.15 3.59304L1606.12 9.87918L1606.24 9.39321ZM1580.27 3.10708L1580.38 2.62111C1571.8 0.54243 1562.09 0.509799 1553.46 2.5304L1553.58 3.01723L1553.69 3.50407C1562.17 1.51903 1571.71 1.55131 1580.15 3.59305L1580.27 3.10708ZM1553.58 3.01723L1553.46 2.5304L1525.61 9.05188L1525.72 9.53872L1525.84 10.0256L1553.69 3.50407L1553.58 3.01723ZM1525.72 9.53872L1525.61 9.05188C1517.04 11.0568 1507.42 11.0407 1498.88 9.00738L1498.76 9.4938L1498.65 9.98021C1507.34 12.0496 1517.12 12.0658 1525.84 10.0256L1525.72 9.53872ZM1498.76 9.4938L1498.88 9.00739L1471.85 2.57477L1471.74 3.06118L1471.62 3.54759L1498.65 9.98021L1498.76 9.4938ZM1471.74 3.06118L1471.85 2.57477C1463.25 0.526015 1453.55 0.526032 1444.94 2.57477L1445.05 3.06118L1445.17 3.54759C1453.63 1.53509 1463.17 1.53507 1471.62 3.54759L1471.74 3.06118ZM1445.05 3.06118L1444.94 2.57477L1418.02 8.98102L1418.14 9.46743L1418.25 9.95384L1445.17 3.54759L1445.05 3.06118ZM1418.14 9.46743L1418.02 8.98102C1409.41 11.0299 1399.71 11.03 1391.11 8.98102L1390.99 9.46743L1390.87 9.95384C1399.63 12.039 1409.49 12.039 1418.25 9.95384L1418.14 9.46743ZM1390.99 9.46743H1390.49V9.46841H1390.99H1391.49V9.46743H1390.99ZM1390.99 9.46841L1391.11 8.98223L1390.46 8.82793L1390.35 9.31411L1390.23 9.80029L1390.87 9.95459L1390.99 9.46841ZM1390.35 9.31411L1390.46 8.8277L1364.08 2.5484L1363.96 3.03481L1363.85 3.52123L1390.23 9.80052L1390.35 9.31411ZM1363.96 3.03481L1364.08 2.5484C1359.3 1.41106 1354.19 0.906127 1349.11 1.03106L1349.13 1.53091L1349.14 2.03075C1354.13 1.90781 1359.16 2.40512 1363.85 3.52123L1363.96 3.03481ZM1349.13 1.53091L1349.11 1.03109C1345.16 1.1384 1341.23 1.6282 1337.51 2.5011L1337.62 2.98794L1337.73 3.47477C1341.39 2.61821 1345.25 2.13631 1349.14 2.03072L1349.13 1.53091ZM1337.62 2.98794L1337.51 2.5011L1309.54 9.04895L1309.65 9.53579L1309.77 10.0226L1337.73 3.47477L1337.62 2.98794ZM1309.65 9.53579L1309.54 9.04895C1305.53 9.9886 1301.28 10.485 1297.01 10.5368L1297.02 11.0368L1297.03 11.5367C1301.36 11.4841 1305.68 10.9798 1309.77 10.0226L1309.65 9.53579ZM1297.02 11.0368L1297.01 10.5368C1292.13 10.6084 1287.24 10.0982 1282.65 9.00739L1282.54 9.4938L1282.42 9.98021C1287.09 11.0915 1292.07 11.6094 1297.03 11.5367L1297.02 11.0368ZM1282.54 9.4938L1282.65 9.00739L1255.63 2.57477L1255.51 3.06118L1255.4 3.54759L1282.42 9.98021L1282.54 9.4938ZM1255.51 3.06118L1255.63 2.57477C1252.97 1.94206 1250.22 1.49962 1247.44 1.24875L1247.39 1.74673L1247.35 2.24471C1250.09 2.49146 1252.79 2.92645 1255.4 3.54759L1255.51 3.06118ZM1247.39 1.74673L1247.44 1.24849C1241.21 0.723836 1234.78 1.16448 1228.87 2.57184L1228.98 3.05825L1229.1 3.54466C1234.9 2.16322 1241.22 1.72871 1247.35 2.24496L1247.39 1.74673ZM1228.98 3.05825L1228.87 2.57184L1201.95 8.97809L1202.07 9.4645L1202.18 9.95091L1229.1 3.54466L1228.98 3.05825ZM1202.07 9.4645L1201.95 8.97809C1193.34 11.0269 1183.64 11.0269 1175.04 8.97809L1174.92 9.4645L1174.8 9.95091C1183.56 12.036 1193.42 12.036 1202.18 9.95091L1202.07 9.4645ZM1174.92 9.4645L1175.04 8.97809L1148.01 2.54547L1147.89 3.03188L1147.78 3.51829L1174.8 9.95091L1174.92 9.4645ZM1147.89 3.03188L1148.01 2.54547C1139.47 0.51223 1129.85 0.496315 1121.28 2.5011L1121.4 2.98794L1121.51 3.47478C1129.92 1.50531 1139.39 1.52106 1147.78 3.5183L1147.89 3.03188ZM1121.4 2.98794L1121.28 2.5011L1093.31 9.04895L1093.43 9.53579L1093.54 10.0226L1121.51 3.47477L1121.4 2.98794ZM1093.43 9.53579L1093.31 9.04895C1084.75 11.0539 1075.13 11.0378 1066.59 9.00445L1066.47 9.49087L1066.35 9.97728C1075.05 12.0466 1084.83 12.0629 1093.54 10.0226L1093.43 9.53579ZM1066.47 9.49087L1066.59 9.00446L1039.56 2.57184L1039.44 3.05825L1039.33 3.54466L1066.35 9.97728L1066.47 9.49087ZM1039.44 3.05825L1039.56 2.57184C1030.95 0.523055 1021.25 0.523099 1012.64 2.57184L1012.76 3.05825L1012.88 3.54466C1021.33 1.53216 1030.87 1.53211 1039.33 3.54466L1039.44 3.05825ZM1012.76 3.05825L1012.64 2.57184L985.843 8.95172L985.959 9.43813L986.075 9.92454L1012.88 3.54466L1012.76 3.05825ZM985.959 9.43813L985.843 8.95172C977.168 11.0166 967.386 10.9988 958.733 8.90431L958.615 9.39028L958.498 9.87625C967.305 12.0079 977.246 12.0259 986.075 9.92454L985.959 9.43813ZM958.615 9.39028L958.733 8.90432L932.763 2.61818L932.646 3.10415L932.528 3.59011L958.498 9.87625L958.615 9.39028ZM932.646 3.10415L932.763 2.61818C924.175 0.539485 914.472 0.506854 905.841 2.52747L905.955 3.0143L906.069 3.50114C914.548 1.51609 924.092 1.54837 932.528 3.59012L932.646 3.10415ZM905.955 3.0143L905.841 2.52747L877.988 9.04895L878.102 9.53579L878.216 10.0226L906.069 3.50114L905.955 3.0143ZM878.102 9.53579L877.988 9.04895C869.424 11.0539 859.802 11.0378 851.258 9.00446L851.143 9.49087L851.027 9.97728C859.721 12.0466 869.501 12.0629 878.216 10.0226L878.102 9.53579ZM851.143 9.49087L851.259 9.00447L846.268 7.81599L846.152 8.30239L846.037 8.78879L851.027 9.97726L851.143 9.49087ZM846.152 8.30239L846.255 7.81296C844.261 7.39636 842.271 6.96031 840.352 6.52382L840.241 7.01137L840.13 7.49893C842.055 7.93658 844.05 8.3739 846.05 8.79182L846.152 8.30239ZM840.241 7.01137L840.352 6.52383C835.98 5.52937 831.95 4.53436 829.014 3.78849L828.891 4.27309L828.768 4.7577C831.709 5.50496 835.747 6.50208 840.13 7.49892L840.241 7.01137ZM828.891 4.27309L829.014 3.78849C827.546 3.41566 826.351 3.1047 825.524 2.88718L825.397 3.37075L825.269 3.85432C826.099 4.07244 827.297 4.38411 828.768 4.7577L828.891 4.27309ZM825.397 3.37075L825.524 2.88718C825.413 2.8582 825.324 2.83402 825.222 2.80722L825.095 3.29067L824.967 3.77413C825.054 3.79711 825.166 3.82722 825.269 3.85432L825.397 3.37075ZM825.095 3.29067L825.21 2.80423L824.233 2.57181L824.117 3.05825L824.002 3.54469L824.979 3.77711L825.095 3.29067ZM824.117 3.05825L824.233 2.57184C815.625 0.52307 805.925 0.523087 797.317 2.57184L797.433 3.05825L797.548 3.54466C806.004 1.53214 815.546 1.53213 824.001 3.54466L824.117 3.05825ZM797.433 3.05825L797.317 2.57184L770.402 8.97809L770.518 9.4645L770.633 9.95091L797.548 3.54466L797.433 3.05825ZM770.518 9.4645L770.402 8.97809C766.748 9.84779 762.895 10.3464 759.01 10.4775L759.026 10.9772L759.043 11.4769C762.99 11.3437 766.91 10.8371 770.633 9.95091L770.518 9.4645ZM759.026 10.9772L759.004 10.4777C753.523 10.7231 747.968 10.2323 742.809 9.00446L742.693 9.49087L742.578 9.97728C747.833 11.228 753.481 11.726 759.049 11.4767L759.026 10.9772ZM742.693 9.49087L742.809 9.00446L715.785 2.57184L715.669 3.05825L715.553 3.54466L742.578 9.97728L742.693 9.49087ZM715.669 3.05825L715.785 2.57184C710.819 1.3899 705.491 0.89134 700.223 1.07222L700.24 1.57192L700.257 2.07163C705.442 1.89362 710.68 2.38476 715.553 3.54466L715.669 3.05825ZM700.24 1.57192L700.218 1.07244C696.647 1.23496 693.107 1.7106 689.731 2.5011L689.845 2.98794L689.959 3.47477C693.272 2.69914 696.75 2.2313 700.263 2.0714L700.24 1.57192ZM689.845 2.98794L689.731 2.5011L661.763 9.04895L661.877 9.53579L661.991 10.0226L689.959 3.47477L689.845 2.98794ZM661.877 9.53579L661.763 9.04895C653.199 11.0538 643.577 11.0378 635.034 9.00446L634.918 9.49087L634.802 9.97728C643.497 12.0467 653.276 12.0628 661.991 10.0226L661.877 9.53579ZM634.918 9.49087L635.034 9.00446L608.008 2.57184L607.893 3.05825L607.777 3.54466L634.802 9.97728L634.918 9.49087ZM607.893 3.05825L608.008 2.57184C604.519 1.74145 600.873 1.23637 597.199 1.06562L597.176 1.56509L597.153 2.06455C600.767 2.23251 604.351 2.72929 607.777 3.54466L607.893 3.05825ZM597.176 1.56509L597.197 1.06555C591.82 0.832747 586.366 1.31002 581.283 2.50012L581.397 2.98696L581.511 3.4738C586.5 2.30573 591.863 1.83551 597.154 2.06462L597.176 1.56509ZM581.397 2.98696L581.283 2.50012L566.895 5.86829L567.009 6.35512L567.123 6.84196L581.511 3.4738L581.397 2.98696ZM567.009 6.35512L566.891 5.8692C564.286 6.50067 561.38 7.2136 558.219 8.00384L558.34 8.48891L558.461 8.97399C561.62 8.1844 564.524 7.47205 567.127 6.84105L567.009 6.35512ZM558.34 8.48891L558.824 8.36426L558.799 8.26563L558.315 8.39028L557.83 8.51493L557.856 8.61356L558.34 8.48891ZM558.315 8.39028L558.201 7.90346L553.315 9.04799L553.429 9.53481L553.543 10.0216L558.429 8.8771L558.315 8.39028ZM553.429 9.53481L553.315 9.04798C544.751 11.0529 535.129 11.0377 526.586 9.00445L526.47 9.49087L526.354 9.97728C535.048 12.0466 544.828 12.0619 553.543 10.0216L553.429 9.53481ZM526.47 9.49087L526.586 9.00446L499.56 2.57184L499.444 3.05825L499.329 3.54466L526.354 9.97728L526.47 9.49087ZM499.444 3.05825L499.56 2.57184C490.952 0.523131 481.252 0.523171 472.644 2.57184L472.76 3.05825L472.876 3.54466C481.331 1.53223 490.873 1.53219 499.329 3.54466L499.444 3.05825ZM472.76 3.05825L472.644 2.57184L445.843 8.95074L445.959 9.43716L446.075 9.92357L472.876 3.54466L472.76 3.05825ZM445.959 9.43716L445.843 8.95074C437.168 11.0156 427.386 10.9987 418.733 8.90431L418.615 9.39028L418.498 9.87625C427.304 12.0078 437.246 12.0249 446.075 9.92357L445.959 9.43716ZM418.615 9.39028L418.733 8.90431L392.763 2.61915L392.646 3.10512L392.528 3.5911L418.498 9.87625L418.615 9.39028ZM392.646 3.10512L392.763 2.61916C384.175 0.540526 374.472 0.506937 365.841 2.52747L365.955 3.0143L366.069 3.50114C374.548 1.51619 384.093 1.54939 392.528 3.59109L392.646 3.10512ZM365.955 3.0143L365.841 2.52747L337.988 9.04797L338.102 9.53481L338.216 10.0217L366.069 3.50114L365.955 3.0143ZM338.102 9.53481L337.988 9.04798C329.424 11.0529 319.801 11.0377 311.258 9.00445L311.143 9.49087L311.027 9.97728C319.721 12.0466 329.501 12.0619 338.216 10.0216L338.102 9.53481ZM311.143 9.49087L311.258 9.00446L284.233 2.57184L284.117 3.05825L284.001 3.54466L311.027 9.97728L311.143 9.49087ZM284.117 3.05825L284.233 2.57184C275.625 0.523126 265.925 0.523153 257.317 2.57184L257.433 3.05825L257.548 3.54466C266.004 1.53221 275.546 1.53218 284.002 3.54466L284.117 3.05825ZM257.433 3.05825L257.317 2.57184L230.402 8.97809L230.518 9.4645L230.633 9.95091L257.548 3.54466L257.433 3.05825ZM230.518 9.4645L230.402 8.97809C221.794 11.0269 212.092 11.027 203.484 8.97809L203.368 9.4645L203.252 9.95091C212.013 12.036 221.873 12.0359 230.633 9.95091L230.518 9.4645ZM203.368 9.4645L203.484 8.97809L176.459 2.54547L176.343 3.03188L176.227 3.51829L203.252 9.95091L203.368 9.4645ZM176.343 3.03188L176.459 2.54547C167.916 0.512358 158.294 0.495399 149.731 2.50012L149.845 2.98696L149.959 3.4738C158.371 1.50442 167.836 1.52117 176.227 3.5183L176.343 3.03188ZM149.845 2.98696L149.731 2.50013L121.763 9.04798L121.877 9.53481L121.991 10.0216L149.959 3.4738L149.845 2.98696ZM121.877 9.53481L121.763 9.04798C113.199 11.0528 103.577 11.0378 95.0338 9.00446L94.918 9.49087L94.8023 9.97728C103.497 12.0466 113.276 12.0618 121.991 10.0216L121.877 9.53481ZM94.918 9.49087L95.0338 9.00446L68.0084 2.57184L67.8927 3.05825L67.7769 3.54466L94.8023 9.97728L94.918 9.49087ZM67.8927 3.05825L68.0084 2.57184C59.4005 0.523171 49.7002 0.523143 41.0923 2.57184L41.2081 3.05825L41.3239 3.54466C49.7795 1.5322 59.3212 1.53223 67.7769 3.54466L67.8927 3.05825ZM41.2081 3.05825L41.0923 2.57184L0.719267 12.1812L0.83504 12.6676L0.950813 13.154L41.3239 3.54466L41.2081 3.05825ZM0.83504 12.6676L1.32135 12.5514L1.08893 11.5788L0.602618 11.695L0.11631 11.8112L0.348732 12.7838L0.83504 12.6676ZM0.602618 11.695L0.718392 12.1814L41.0914 2.57201L40.9757 2.08559L40.8599 1.59918L0.486845 11.2086L0.602618 11.695ZM40.9757 2.08559L41.0914 2.57201C49.6996 0.523177 59.4011 0.523206 68.0093 2.57201L68.1251 2.08559L68.2408 1.59918C59.4804 -0.485852 49.6203 -0.485882 40.8599 1.59918L40.9757 2.08559ZM68.1251 2.08559L68.0093 2.57201L95.0347 9.00462L95.1505 8.51821L95.2662 8.0318L68.2409 1.59918L68.1251 2.08559ZM95.1505 8.51821L95.0347 9.00462C103.578 11.0378 113.199 11.0528 121.762 9.04802L121.649 8.56118L121.535 8.07434C113.122 10.0438 103.658 10.029 95.2662 8.0318L95.1505 8.51821ZM121.649 8.56118L121.762 9.04802L149.73 2.50016L149.616 2.01333L149.502 1.52649L121.535 8.07434L121.649 8.56118ZM149.616 2.01333L149.73 2.50017C158.294 0.495328 167.917 0.512389 176.46 2.54564L176.575 2.05923L176.691 1.57281C167.997 -0.49642 158.217 -0.513692 149.502 1.52649L149.616 2.01333ZM176.575 2.05923L176.459 2.54564L203.485 8.97825L203.601 8.49184L203.716 8.00543L176.691 1.57282L176.575 2.05923ZM203.601 8.49184L203.485 8.97826C212.093 11.027 221.793 11.0269 230.401 8.97826L230.285 8.49184L230.169 8.00543C221.714 10.0179 212.172 10.0179 203.716 8.00543L203.601 8.49184ZM230.285 8.49184L230.401 8.97826L257.316 2.57201L257.2 2.08559L257.084 1.59918L230.169 8.00543L230.285 8.49184ZM257.2 2.08559L257.316 2.57201C265.924 0.523188 275.626 0.523162 284.234 2.57201L284.35 2.08559L284.465 1.59918C275.705 -0.485898 265.845 -0.485869 257.084 1.59918L257.2 2.08559ZM284.35 2.08559L284.234 2.57201L311.259 9.00462L311.375 8.51821L311.491 8.0318L284.465 1.59918L284.35 2.08559ZM311.375 8.51821L311.259 9.00462C319.802 11.0378 329.423 11.0528 337.987 9.04802L337.873 8.56118L337.759 8.07434C329.346 10.0438 319.882 10.0289 311.491 8.0318L311.375 8.51821ZM337.873 8.56118L337.987 9.04802L365.841 2.52751L365.727 2.04067L365.613 1.55383L337.759 8.07434L337.873 8.56118ZM365.727 2.04067L365.841 2.52751C374.472 0.506937 384.174 0.539879 392.762 2.61844L392.88 2.13247L392.998 1.6465C384.257 -0.468997 374.395 -0.502301 365.613 1.55383L365.727 2.04067ZM392.88 2.13247L392.762 2.61844L418.732 8.9036L418.85 8.41762L418.967 7.93165L392.998 1.6465L392.88 2.13247ZM418.85 8.41762L418.732 8.90359C427.385 10.998 437.167 11.0157 445.842 8.95091L445.727 8.4645L445.611 7.97809C437.089 10.0064 427.467 9.98894 418.967 7.93166L418.85 8.41762ZM445.727 8.4645L445.842 8.95091L472.643 2.57201L472.527 2.08559L472.412 1.59918L445.611 7.97809L445.727 8.4645ZM472.527 2.08559L472.643 2.57201C481.251 0.523207 490.953 0.523168 499.561 2.57201L499.677 2.08559L499.793 1.59918C491.032 -0.485892 481.172 -0.48585 472.412 1.59918L472.527 2.08559ZM499.677 2.08559L499.561 2.57201L526.586 9.00462L526.702 8.51821L526.818 8.0318L499.793 1.59918L499.677 2.08559ZM526.702 8.51821L526.586 9.00462C535.129 11.0378 544.751 11.0528 553.314 9.04802L553.2 8.56118L553.086 8.07434C544.673 10.0438 535.209 10.0289 526.818 8.0318L526.702 8.51821ZM553.2 8.56118L553.314 9.04801L566.847 5.87907L566.733 5.39223L566.619 4.9054L553.086 8.07435L553.2 8.56118ZM566.733 5.39223L566.851 5.87816C570.032 5.10708 572.766 4.45781 574.969 3.94154L574.855 3.45473L574.74 2.96792C572.535 3.48475 569.799 4.13461 566.616 4.90631L566.733 5.39223ZM574.855 3.45473L574.969 3.94154C576.969 3.47285 578.531 3.11309 579.594 2.87094L579.483 2.38345L579.371 1.89595C578.307 2.13855 576.742 2.49877 574.74 2.96792L574.855 3.45473ZM579.483 2.38345L579.594 2.87094C580.125 2.74994 580.531 2.65844 580.805 2.59684L580.695 2.10903L580.586 1.62122C580.312 1.68285 579.904 1.77461 579.371 1.89595L579.483 2.38345ZM580.695 2.10903L580.805 2.59684C580.952 2.56386 581.04 2.54329 581.114 2.52667L581.005 2.03872L580.896 1.55077C580.831 1.56522 580.712 1.59274 580.586 1.62122L580.695 2.10903ZM581.005 2.03872L581.114 2.52667C581.15 2.51868 581.172 2.51374 581.193 2.50917L581.084 2.02114L580.975 1.53311C580.961 1.53636 580.93 1.54324 580.896 1.55076L581.005 2.03872ZM581.084 2.02114L581.193 2.50919C581.192 2.50926 581.193 2.50921 581.195 2.50874C581.196 2.50862 581.198 2.50806 581.2 2.50766C581.202 2.50721 581.206 2.50638 581.211 2.50534L581.103 2.01723L580.994 1.52913C580.997 1.52857 580.998 1.52825 580.998 1.52834C580.997 1.5285 580.997 1.52852 580.994 1.52904C580.99 1.52984 580.984 1.53126 580.975 1.5331L581.084 2.02114Z" fill="#413D57"/>
</g>
</svg>
