<svg width="160" height="249" viewBox="0 0 160 249" fill="none" xmlns="http://www.w3.org/2000/svg">
<g clip-path="url(#clip0_opp2)">
<path d="M108.096 130.669C110.677 132.266 113.116 134.184 115.355 136.424C130.976 152.045 130.976 177.371 115.355 192.992L92.7295 170.366M92.7295 170.366C100.805 158.177 105.927 144.608 108.096 130.669C112.836 100.204 103.47 67.9699 80.0001 44.4999C56.532 67.97 47.1683 100.203 51.9089 130.666C54.0781 144.605 59.2003 158.173 67.2755 170.362C67.6652 170.95 68.0617 171.535 68.4651 172.116C76.1302 173.001 83.8782 173.001 91.5434 172.116C91.9456 171.536 92.341 170.953 92.7295 170.366ZM51.9089 130.666C49.326 132.264 46.8855 134.183 44.6447 136.424C29.0237 152.045 29.0237 177.371 44.6447 192.992L67.2755 170.362M87.0711 101.068C90.9764 104.974 90.9764 111.305 87.0711 115.211C83.1659 119.116 76.8342 119.116 72.929 115.211C69.0237 111.305 69.0237 104.974 72.929 101.068C76.8342 97.1633 83.1659 97.1633 87.0711 101.068Z" stroke="#0052E2" stroke-width="10" stroke-linecap="round" stroke-linejoin="round"/>
</g>
<defs>
<clipPath id="clip0_opp2">
<rect width="160" height="249" fill="white"/>
</clipPath>
</defs>
</svg>
